%TF.GenerationSoftware,KiCad,Pcbnew,(6.0.7)*%
%TF.CreationDate,2022-10-25T16:16:00+09:00*%
%TF.ProjectId,quad_jsb,71756164-5f6a-4736-922e-6b696361645f,rev?*%
%TF.SameCoordinates,Original*%
%TF.FileFunction,Paste,Bot*%
%TF.FilePolarity,Positive*%
%FSLAX46Y46*%
G04 Gerber Fmt 4.6, Leading zero omitted, Abs format (unit mm)*
G04 Created by KiCad (PCBNEW (6.0.7)) date 2022-10-25 16:16:00*
%MOMM*%
%LPD*%
G01*
G04 APERTURE LIST*
G04 Aperture macros list*
%AMRoundRect*
0 Rectangle with rounded corners*
0 $1 Rounding radius*
0 $2 $3 $4 $5 $6 $7 $8 $9 X,Y pos of 4 corners*
0 Add a 4 corners polygon primitive as box body*
4,1,4,$2,$3,$4,$5,$6,$7,$8,$9,$2,$3,0*
0 Add four circle primitives for the rounded corners*
1,1,$1+$1,$2,$3*
1,1,$1+$1,$4,$5*
1,1,$1+$1,$6,$7*
1,1,$1+$1,$8,$9*
0 Add four rect primitives between the rounded corners*
20,1,$1+$1,$2,$3,$4,$5,0*
20,1,$1+$1,$4,$5,$6,$7,0*
20,1,$1+$1,$6,$7,$8,$9,0*
20,1,$1+$1,$8,$9,$2,$3,0*%
%AMFreePoly0*
4,1,9,5.362500,-0.866500,1.237500,-0.866500,1.237500,-0.450000,-1.237500,-0.450000,-1.237500,0.450000,1.237500,0.450000,1.237500,0.866500,5.362500,0.866500,5.362500,-0.866500,5.362500,-0.866500,$1*%
G04 Aperture macros list end*
%ADD10RoundRect,0.237500X0.300000X0.237500X-0.300000X0.237500X-0.300000X-0.237500X0.300000X-0.237500X0*%
%ADD11RoundRect,0.237500X-0.250000X-0.237500X0.250000X-0.237500X0.250000X0.237500X-0.250000X0.237500X0*%
%ADD12RoundRect,0.250000X0.337500X0.475000X-0.337500X0.475000X-0.337500X-0.475000X0.337500X-0.475000X0*%
%ADD13RoundRect,0.150000X0.150000X-0.587500X0.150000X0.587500X-0.150000X0.587500X-0.150000X-0.587500X0*%
%ADD14R,2.150000X5.500000*%
%ADD15RoundRect,0.150000X-0.150000X0.825000X-0.150000X-0.825000X0.150000X-0.825000X0.150000X0.825000X0*%
%ADD16R,2.300000X0.900000*%
%ADD17FreePoly0,0.000000*%
%ADD18RoundRect,0.237500X-0.300000X-0.237500X0.300000X-0.237500X0.300000X0.237500X-0.300000X0.237500X0*%
%ADD19RoundRect,0.250001X0.499999X0.924999X-0.499999X0.924999X-0.499999X-0.924999X0.499999X-0.924999X0*%
%ADD20RoundRect,0.250000X-0.337500X-0.475000X0.337500X-0.475000X0.337500X0.475000X-0.337500X0.475000X0*%
G04 APERTURE END LIST*
D10*
%TO.C,C5*%
X35062500Y13050000D03*
X33337500Y13050000D03*
%TD*%
D11*
%TO.C,R5*%
X4212500Y30875000D03*
X6037500Y30875000D03*
%TD*%
D12*
%TO.C,C4*%
X27037500Y41000000D03*
X24962500Y41000000D03*
%TD*%
D13*
%TO.C,U3*%
X35175000Y15537500D03*
X33275000Y15537500D03*
X34225000Y17412500D03*
%TD*%
D14*
%TO.C,L1*%
X28075000Y33750000D03*
X31925000Y33750000D03*
%TD*%
D10*
%TO.C,C8*%
X35075000Y10100000D03*
X33350000Y10100000D03*
%TD*%
D15*
%TO.C,U8*%
X46745000Y27950000D03*
X48015000Y27950000D03*
X49285000Y27950000D03*
X50555000Y27950000D03*
X50555000Y23000000D03*
X49285000Y23000000D03*
X48015000Y23000000D03*
X46745000Y23000000D03*
%TD*%
%TO.C,U7*%
X5095000Y27475000D03*
X6365000Y27475000D03*
X7635000Y27475000D03*
X8905000Y27475000D03*
X8905000Y22525000D03*
X7635000Y22525000D03*
X6365000Y22525000D03*
X5095000Y22525000D03*
%TD*%
D16*
%TO.C,U2*%
X27325000Y21575000D03*
D17*
X27412500Y23075000D03*
D16*
X27325000Y24575000D03*
%TD*%
D18*
%TO.C,C3*%
X25237500Y10550000D03*
X26962500Y10550000D03*
%TD*%
D19*
%TO.C,C6*%
X27800000Y17925000D03*
X24550000Y17925000D03*
%TD*%
D18*
%TO.C,C2*%
X25112500Y43675000D03*
X26837500Y43675000D03*
%TD*%
D11*
%TO.C,R7*%
X44887500Y31350000D03*
X46712500Y31350000D03*
%TD*%
%TO.C,R8*%
X49237500Y31350000D03*
X51062500Y31350000D03*
%TD*%
D20*
%TO.C,C7*%
X25062500Y13750000D03*
X27137500Y13750000D03*
%TD*%
D11*
%TO.C,R6*%
X8937500Y30750000D03*
X10762500Y30750000D03*
%TD*%
M02*
