M48
; DRILL file {KiCad (6.0.7)} date Tue Oct 25 16:16:07 2022
; FORMAT={-:-/ absolute / inch / decimal}
; #@! TF.CreationDate,2022-10-25T16:16:07+09:00
; #@! TF.GenerationSoftware,Kicad,Pcbnew,(6.0.7)
; #@! TF.FileFunction,Plated,1,2,PTH
FMAT,2
INCH
; #@! TA.AperFunction,Plated,PTH,ViaDrill
T1C0.0157
; #@! TA.AperFunction,Plated,PTH,ComponentDrill
T2C0.0300
; #@! TA.AperFunction,Plated,PTH,ViaDrill
T3C0.0394
; #@! TA.AperFunction,Plated,PTH,ComponentDrill
T4C0.0394
; #@! TA.AperFunction,Plated,PTH,ViaDrill
T5C0.0472
; #@! TA.AperFunction,Plated,PTH,ComponentDrill
T6C0.0472
%
G90
G05
T1
X0.2362Y1.1614
X0.3888Y1.1417
X0.7283Y1.1122
X1.3583Y0.9941
X1.4567Y0.1969
X1.4567Y0.128
X1.8898Y1.1811
X2.0079Y1.1713
T2
X0.6327Y2.0327
X0.6327Y1.9327
X0.6327Y1.8327
X0.6327Y1.7327
X0.6327Y1.6327
X0.6327Y1.5327
X0.6327Y1.4327
X0.6327Y1.3327
X0.6327Y1.2327
X0.6327Y1.1327
X0.6327Y1.0327
X0.6327Y0.9327
X0.6327Y0.8327
X0.6327Y0.7327
X0.6327Y0.6327
X0.6327Y0.5327
X0.6327Y0.4327
X0.6327Y0.3327
X0.6327Y0.2327
X0.6327Y0.1327
X1.0382Y0.2657
X1.0382Y0.1689
X1.135Y0.2657
X1.135Y0.1689
X1.2319Y0.2657
X1.2319Y0.1689
X1.3287Y0.2657
X1.3287Y0.1689
X1.5327Y2.0327
X1.5327Y1.9327
X1.5327Y1.8327
X1.5327Y1.7327
X1.5327Y1.6327
X1.5327Y1.5327
X1.5327Y1.4327
X1.5327Y1.3327
X1.5327Y1.2327
X1.5327Y1.1327
X1.5327Y1.0327
X1.5327Y0.9327
X1.5327Y0.8327
X1.5327Y0.7327
X1.5327Y0.6327
X1.5327Y0.5327
X1.5327Y0.4327
X1.5327Y0.3327
X1.5327Y0.2327
X1.5327Y0.1327
T3
X0.4331Y1.4173
T4
X0.112Y0.262
X0.1317Y1.9033
X0.262Y0.112
X0.2817Y2.0533
X0.7963Y1.5167
X0.7963Y1.4167
X0.7963Y1.3167
X0.7963Y1.2167
X0.7963Y1.1167
X0.7963Y1.0167
X0.7963Y0.9167
X0.7963Y0.8167
X0.7963Y0.7167
X0.7963Y0.6167
X1.2189Y1.6634
X1.4189Y1.6634
X1.8679Y2.0327
X1.8738Y0.1809
X2.0179Y1.8827
X2.0238Y0.3309
T5
X0.9154Y1.1909
X2.0669Y0.5315
T6
X0.9827Y1.9882
X1.1827Y1.9882
T0
M30
