%TF.GenerationSoftware,KiCad,Pcbnew,(6.0.7)*%
%TF.CreationDate,2022-10-25T16:16:00+09:00*%
%TF.ProjectId,quad_jsb,71756164-5f6a-4736-922e-6b696361645f,rev?*%
%TF.SameCoordinates,Original*%
%TF.FileFunction,Copper,L2,Bot*%
%TF.FilePolarity,Positive*%
%FSLAX46Y46*%
G04 Gerber Fmt 4.6, Leading zero omitted, Abs format (unit mm)*
G04 Created by KiCad (PCBNEW (6.0.7)) date 2022-10-25 16:16:00*
%MOMM*%
%LPD*%
G01*
G04 APERTURE LIST*
G04 Aperture macros list*
%AMRoundRect*
0 Rectangle with rounded corners*
0 $1 Rounding radius*
0 $2 $3 $4 $5 $6 $7 $8 $9 X,Y pos of 4 corners*
0 Add a 4 corners polygon primitive as box body*
4,1,4,$2,$3,$4,$5,$6,$7,$8,$9,$2,$3,0*
0 Add four circle primitives for the rounded corners*
1,1,$1+$1,$2,$3*
1,1,$1+$1,$4,$5*
1,1,$1+$1,$6,$7*
1,1,$1+$1,$8,$9*
0 Add four rect primitives between the rounded corners*
20,1,$1+$1,$2,$3,$4,$5,0*
20,1,$1+$1,$4,$5,$6,$7,0*
20,1,$1+$1,$6,$7,$8,$9,0*
20,1,$1+$1,$8,$9,$2,$3,0*%
%AMFreePoly0*
4,1,9,5.362500,-0.866500,1.237500,-0.866500,1.237500,-0.450000,-1.237500,-0.450000,-1.237500,0.450000,1.237500,0.450000,1.237500,0.866500,5.362500,0.866500,5.362500,-0.866500,5.362500,-0.866500,$1*%
G04 Aperture macros list end*
%TA.AperFunction,ComponentPad*%
%ADD10C,2.000000*%
%TD*%
%TA.AperFunction,ComponentPad*%
%ADD11R,2.000000X2.000000*%
%TD*%
%TA.AperFunction,ComponentPad*%
%ADD12C,2.200000*%
%TD*%
%TA.AperFunction,ComponentPad*%
%ADD13R,2.200000X2.200000*%
%TD*%
%TA.AperFunction,ComponentPad*%
%ADD14R,1.524000X1.524000*%
%TD*%
%TA.AperFunction,ComponentPad*%
%ADD15C,1.524000*%
%TD*%
%TA.AperFunction,ComponentPad*%
%ADD16O,2.000000X2.000000*%
%TD*%
%TA.AperFunction,ComponentPad*%
%ADD17R,1.700000X1.700000*%
%TD*%
%TA.AperFunction,ComponentPad*%
%ADD18O,1.700000X1.700000*%
%TD*%
%TA.AperFunction,SMDPad,CuDef*%
%ADD19RoundRect,0.237500X0.300000X0.237500X-0.300000X0.237500X-0.300000X-0.237500X0.300000X-0.237500X0*%
%TD*%
%TA.AperFunction,SMDPad,CuDef*%
%ADD20RoundRect,0.237500X-0.250000X-0.237500X0.250000X-0.237500X0.250000X0.237500X-0.250000X0.237500X0*%
%TD*%
%TA.AperFunction,SMDPad,CuDef*%
%ADD21RoundRect,0.250000X0.337500X0.475000X-0.337500X0.475000X-0.337500X-0.475000X0.337500X-0.475000X0*%
%TD*%
%TA.AperFunction,SMDPad,CuDef*%
%ADD22RoundRect,0.150000X0.150000X-0.587500X0.150000X0.587500X-0.150000X0.587500X-0.150000X-0.587500X0*%
%TD*%
%TA.AperFunction,SMDPad,CuDef*%
%ADD23R,2.150000X5.500000*%
%TD*%
%TA.AperFunction,SMDPad,CuDef*%
%ADD24RoundRect,0.150000X-0.150000X0.825000X-0.150000X-0.825000X0.150000X-0.825000X0.150000X0.825000X0*%
%TD*%
%TA.AperFunction,SMDPad,CuDef*%
%ADD25R,2.300000X0.900000*%
%TD*%
%TA.AperFunction,SMDPad,CuDef*%
%ADD26FreePoly0,0.000000*%
%TD*%
%TA.AperFunction,SMDPad,CuDef*%
%ADD27RoundRect,0.237500X-0.300000X-0.237500X0.300000X-0.237500X0.300000X0.237500X-0.300000X0.237500X0*%
%TD*%
%TA.AperFunction,SMDPad,CuDef*%
%ADD28RoundRect,0.250001X0.499999X0.924999X-0.499999X0.924999X-0.499999X-0.924999X0.499999X-0.924999X0*%
%TD*%
%TA.AperFunction,SMDPad,CuDef*%
%ADD29RoundRect,0.250000X-0.337500X-0.475000X0.337500X-0.475000X0.337500X0.475000X-0.337500X0.475000X0*%
%TD*%
%TA.AperFunction,ViaPad*%
%ADD30C,2.000000*%
%TD*%
%TA.AperFunction,ViaPad*%
%ADD31C,0.800000*%
%TD*%
%TA.AperFunction,Conductor*%
%ADD32C,0.250000*%
%TD*%
%TA.AperFunction,Conductor*%
%ADD33C,1.000000*%
%TD*%
%TA.AperFunction,Conductor*%
%ADD34C,0.200000*%
%TD*%
G04 APERTURE END LIST*
D10*
%TO.P,U11,1,+*%
%TO.N,VBAT*%
X3345000Y48345000D03*
D11*
%TO.P,U11,2,-*%
%TO.N,Net-(C11-Pad1)*%
X7155000Y52155000D03*
%TD*%
D12*
%TO.P,U1,2,BAT*%
%TO.N,VBAT*%
X30040000Y50500000D03*
D13*
%TO.P,U1,1,GND*%
%TO.N,GND*%
X24960000Y50500000D03*
%TD*%
D14*
%TO.P,U4,1,GND*%
%TO.N,GND*%
X33750000Y6750000D03*
D15*
%TO.P,U4,2,VCC*%
%TO.N,+3.3V*%
X33750000Y4290000D03*
%TO.P,U4,3,CE*%
%TO.N,Net-(U4-Pad3)*%
X31290000Y6750000D03*
%TO.P,U4,4,CSN*%
%TO.N,Net-(U4-Pad4)*%
X31290000Y4290000D03*
%TO.P,U4,5,SCK*%
%TO.N,Net-(U4-Pad5)*%
X28830000Y6750000D03*
%TO.P,U4,6,MOSI*%
%TO.N,Net-(U4-Pad6)*%
X28830000Y4290000D03*
%TO.P,U4,7,MISO*%
%TO.N,Net-(U4-Pad7)*%
X26370000Y6750000D03*
%TO.P,U4,8*%
%TO.N,N/C*%
X26370000Y4290000D03*
%TD*%
D10*
%TO.P,U12,1,+*%
%TO.N,VBAT*%
X51405000Y8405000D03*
D11*
%TO.P,U12,2,-*%
%TO.N,Net-(C12-Pad1)*%
X47595000Y4595000D03*
%TD*%
D10*
%TO.P,U9,1,+*%
%TO.N,VBAT*%
X2845000Y6655000D03*
D11*
%TO.P,U9,2,-*%
%TO.N,Net-(C9-Pad1)*%
X6655000Y2845000D03*
%TD*%
%TO.P,D1,1,A*%
%TO.N,Net-(D1-Pad1)*%
X30960000Y42250000D03*
D16*
%TO.P,D1,2,K*%
%TO.N,+5V*%
X36040000Y42250000D03*
%TD*%
D17*
%TO.P,U6,1,VCC*%
%TO.N,+3.3V*%
X20225000Y38525000D03*
D18*
%TO.P,U6,2,GND*%
%TO.N,GND*%
X20225000Y35985000D03*
%TO.P,U6,3,SCL*%
%TO.N,Net-(R3-Pad2)*%
X20225000Y33445000D03*
%TO.P,U6,4,SDA*%
%TO.N,Net-(R4-Pad2)*%
X20225000Y30905000D03*
%TO.P,U6,5*%
%TO.N,N/C*%
X20225000Y28365000D03*
%TO.P,U6,6*%
X20225000Y25825000D03*
%TO.P,U6,7*%
X20225000Y23285000D03*
%TO.P,U6,8*%
X20225000Y20745000D03*
%TO.P,U6,9*%
X20225000Y18205000D03*
%TO.P,U6,10*%
X20225000Y15665000D03*
%TD*%
D10*
%TO.P,U10,1,+*%
%TO.N,VBAT*%
X51255000Y47820000D03*
D11*
%TO.P,U10,2,-*%
%TO.N,Net-(C10-Pad1)*%
X47445000Y51630000D03*
%TD*%
D19*
%TO.P,C5,1*%
%TO.N,GND*%
X35062500Y13050000D03*
%TO.P,C5,2*%
%TO.N,+3.3V*%
X33337500Y13050000D03*
%TD*%
D20*
%TO.P,R5,1*%
%TO.N,GND*%
X4212500Y30875000D03*
%TO.P,R5,2*%
%TO.N,Net-(R5-Pad2)*%
X6037500Y30875000D03*
%TD*%
D21*
%TO.P,C4,1*%
%TO.N,VBAT*%
X27037500Y41000000D03*
%TO.P,C4,2*%
%TO.N,GND*%
X24962500Y41000000D03*
%TD*%
D22*
%TO.P,U3,1,GND*%
%TO.N,GND*%
X35175000Y15537500D03*
%TO.P,U3,2,VO*%
%TO.N,+3.3V*%
X33275000Y15537500D03*
%TO.P,U3,3,VI*%
%TO.N,+5V*%
X34225000Y17412500D03*
%TD*%
D23*
%TO.P,L1,1,1*%
%TO.N,VBAT*%
X28075000Y33750000D03*
%TO.P,L1,2,2*%
%TO.N,Net-(D1-Pad1)*%
X31925000Y33750000D03*
%TD*%
D14*
%TO.P,U5,1,GND*%
%TO.N,GND*%
X38930000Y51630000D03*
D15*
%TO.P,U5,2,VIN*%
%TO.N,+5V*%
X38930000Y49090000D03*
%TO.P,U5,3*%
%TO.N,N/C*%
X38930000Y46550000D03*
%TO.P,U5,4*%
X38930000Y44010000D03*
%TO.P,U5,5,p5*%
%TO.N,Net-(U4-Pad6)*%
X38930000Y41470000D03*
%TO.P,U5,6,p6*%
%TO.N,Net-(U4-Pad7)*%
X38930000Y38930000D03*
%TO.P,U5,7,p7*%
%TO.N,Net-(U4-Pad5)*%
X38930000Y36390000D03*
%TO.P,U5,8,p8*%
%TO.N,Net-(U4-Pad4)*%
X38930000Y33850000D03*
%TO.P,U5,9*%
%TO.N,N/C*%
X38930000Y31310000D03*
%TO.P,U5,10*%
X38930000Y28770000D03*
%TO.P,U5,11*%
X38930000Y26230000D03*
%TO.P,U5,12*%
X38930000Y23690000D03*
%TO.P,U5,13*%
X38930000Y21150000D03*
%TO.P,U5,14*%
X38930000Y18610000D03*
%TO.P,U5,15,p15*%
%TO.N,Net-(U4-Pad3)*%
X38930000Y16070000D03*
%TO.P,U5,16*%
%TO.N,N/C*%
X38930000Y13530000D03*
%TO.P,U5,17,p17*%
%TO.N,Net-(R1-Pad2)*%
X38930000Y10990000D03*
%TO.P,U5,18*%
%TO.N,N/C*%
X38930000Y8450000D03*
%TO.P,U5,19*%
X38930000Y5910000D03*
%TO.P,U5,20*%
X38930000Y3370000D03*
%TO.P,U5,21,p21*%
%TO.N,Net-(R6-Pad2)*%
X16070000Y3370000D03*
%TO.P,U5,22,p22*%
%TO.N,Net-(R5-Pad2)*%
X16070000Y5910000D03*
%TO.P,U5,23,p23*%
%TO.N,Net-(R8-Pad2)*%
X16070000Y8450000D03*
%TO.P,U5,24,p24*%
%TO.N,Net-(R7-Pad2)*%
X16070000Y10990000D03*
%TO.P,U5,25*%
%TO.N,N/C*%
X16070000Y13530000D03*
%TO.P,U5,26,p26*%
%TO.N,Net-(D2-Pad1)*%
X16070000Y16070000D03*
%TO.P,U5,27,p27*%
%TO.N,Net-(R3-Pad2)*%
X16070000Y18610000D03*
%TO.P,U5,28,p28*%
%TO.N,Net-(R4-Pad2)*%
X16070000Y21150000D03*
%TO.P,U5,29*%
%TO.N,N/C*%
X16070000Y23690000D03*
%TO.P,U5,30*%
X16070000Y26230000D03*
%TO.P,U5,31*%
X16070000Y28770000D03*
%TO.P,U5,32*%
X16070000Y31310000D03*
%TO.P,U5,33*%
X16070000Y33850000D03*
%TO.P,U5,34*%
X16070000Y36390000D03*
%TO.P,U5,35*%
X16070000Y38930000D03*
%TO.P,U5,36*%
X16070000Y41470000D03*
%TO.P,U5,37*%
X16070000Y44010000D03*
%TO.P,U5,38*%
X16070000Y46550000D03*
%TO.P,U5,39*%
X16070000Y49090000D03*
%TO.P,U5,40*%
X16070000Y51630000D03*
%TD*%
D19*
%TO.P,C8,1*%
%TO.N,GND*%
X35075000Y10100000D03*
%TO.P,C8,2*%
%TO.N,+3.3V*%
X33350000Y10100000D03*
%TD*%
D24*
%TO.P,U8,1,S2*%
%TO.N,GND*%
X46745000Y27950000D03*
%TO.P,U8,2,G2*%
%TO.N,Net-(R7-Pad2)*%
X48015000Y27950000D03*
%TO.P,U8,3,S1*%
%TO.N,GND*%
X49285000Y27950000D03*
%TO.P,U8,4,G1*%
%TO.N,Net-(R8-Pad2)*%
X50555000Y27950000D03*
%TO.P,U8,5,D1*%
%TO.N,Net-(C10-Pad1)*%
X50555000Y23000000D03*
%TO.P,U8,6,D1*%
X49285000Y23000000D03*
%TO.P,U8,7,D2*%
%TO.N,Net-(C12-Pad1)*%
X48015000Y23000000D03*
%TO.P,U8,8,D2*%
X46745000Y23000000D03*
%TD*%
%TO.P,U7,1,S2*%
%TO.N,GND*%
X5095000Y27475000D03*
%TO.P,U7,2,G2*%
%TO.N,Net-(R5-Pad2)*%
X6365000Y27475000D03*
%TO.P,U7,3,S1*%
%TO.N,GND*%
X7635000Y27475000D03*
%TO.P,U7,4,G1*%
%TO.N,Net-(R6-Pad2)*%
X8905000Y27475000D03*
%TO.P,U7,5,D1*%
%TO.N,Net-(C9-Pad1)*%
X8905000Y22525000D03*
%TO.P,U7,6,D1*%
X7635000Y22525000D03*
%TO.P,U7,7,D2*%
%TO.N,Net-(C11-Pad1)*%
X6365000Y22525000D03*
%TO.P,U7,8,D2*%
X5095000Y22525000D03*
%TD*%
D25*
%TO.P,U2,1,VSS*%
%TO.N,GND*%
X27325000Y21575000D03*
D26*
%TO.P,U2,2,OUT*%
%TO.N,+5V*%
X27412500Y23075000D03*
D25*
%TO.P,U2,3,LX*%
%TO.N,Net-(D1-Pad1)*%
X27325000Y24575000D03*
%TD*%
D27*
%TO.P,C3,1*%
%TO.N,GND*%
X25237500Y10550000D03*
%TO.P,C3,2*%
%TO.N,+5V*%
X26962500Y10550000D03*
%TD*%
D28*
%TO.P,C6,1*%
%TO.N,+5V*%
X27800000Y17925000D03*
%TO.P,C6,2*%
%TO.N,GND*%
X24550000Y17925000D03*
%TD*%
D27*
%TO.P,C2,1*%
%TO.N,GND*%
X25112500Y43675000D03*
%TO.P,C2,2*%
%TO.N,VBAT*%
X26837500Y43675000D03*
%TD*%
D20*
%TO.P,R7,1*%
%TO.N,GND*%
X44887500Y31350000D03*
%TO.P,R7,2*%
%TO.N,Net-(R7-Pad2)*%
X46712500Y31350000D03*
%TD*%
%TO.P,R8,1*%
%TO.N,GND*%
X49237500Y31350000D03*
%TO.P,R8,2*%
%TO.N,Net-(R8-Pad2)*%
X51062500Y31350000D03*
%TD*%
D29*
%TO.P,C7,1*%
%TO.N,GND*%
X25062500Y13750000D03*
%TO.P,C7,2*%
%TO.N,+5V*%
X27137500Y13750000D03*
%TD*%
D20*
%TO.P,R6,1*%
%TO.N,GND*%
X8937500Y30750000D03*
%TO.P,R6,2*%
%TO.N,Net-(R6-Pad2)*%
X10762500Y30750000D03*
%TD*%
D30*
%TO.N,GND*%
X52500000Y13500000D03*
X23250000Y30250000D03*
X11000000Y36000000D03*
D31*
%TO.N,Net-(R3-Pad2)*%
X18500000Y28250000D03*
%TO.N,Net-(R5-Pad2)*%
X9875500Y29000000D03*
X6000000Y29500000D03*
%TO.N,Net-(R7-Pad2)*%
X48000000Y30000000D03*
X37000000Y5000000D03*
%TO.N,Net-(R8-Pad2)*%
X51000000Y29750000D03*
X37000000Y3250000D03*
%TO.N,Net-(U4-Pad4)*%
X34500000Y25250000D03*
%TD*%
D32*
%TO.N,Net-(R8-Pad2)*%
X50500000Y28005000D02*
X50555000Y27950000D01*
X51000000Y29750000D02*
X50500000Y29250000D01*
X50500000Y29250000D02*
X50500000Y28005000D01*
%TO.N,Net-(R7-Pad2)*%
X17760000Y10990000D02*
X16070000Y10990000D01*
X19250000Y9500000D02*
X17760000Y10990000D01*
X19250000Y1750000D02*
X19250000Y9500000D01*
X19750000Y1250000D02*
X19250000Y1750000D01*
X34500000Y1750000D02*
X34000000Y1250000D01*
X34500000Y1775305D02*
X34500000Y1750000D01*
X37000000Y4275305D02*
X34500000Y1775305D01*
X37000000Y5000000D02*
X37000000Y4275305D01*
X34000000Y1250000D02*
X19750000Y1250000D01*
D33*
%TO.N,GND*%
X23500000Y30000000D02*
X23500000Y22500000D01*
X23250000Y30250000D02*
X23500000Y30000000D01*
X23500000Y38057919D02*
X24962500Y39520419D01*
X23250000Y30250000D02*
X23500000Y30500000D01*
X23500000Y30500000D02*
X23500000Y38057919D01*
%TO.N,VBAT*%
X28075000Y39175000D02*
X28075000Y33750000D01*
X27037500Y40212500D02*
X28075000Y39175000D01*
X27037500Y41000000D02*
X27037500Y40212500D01*
%TO.N,+5V*%
X33175000Y23075000D02*
X27412500Y23075000D01*
X34225000Y22025000D02*
X33175000Y23075000D01*
X34225000Y17412500D02*
X34225000Y22025000D01*
%TO.N,GND*%
X27000000Y53750000D02*
X37750000Y53750000D01*
X24960000Y51710000D02*
X27000000Y53750000D01*
X24960000Y51000000D02*
X24960000Y51710000D01*
X14250000Y54000000D02*
X12000000Y51750000D01*
X24960000Y52040000D02*
X23000000Y54000000D01*
X24960000Y50500000D02*
X24960000Y52040000D01*
X23000000Y54000000D02*
X14250000Y54000000D01*
X12000000Y51750000D02*
X12000000Y37000000D01*
X12000000Y37000000D02*
X11000000Y36000000D01*
X24960000Y51000000D02*
X24960000Y50500000D01*
D32*
%TO.N,Net-(R8-Pad2)*%
X17300000Y8450000D02*
X16070000Y8450000D01*
X18750000Y1250000D02*
X18750000Y7000000D01*
X19500000Y500000D02*
X18750000Y1250000D01*
X36250000Y500000D02*
X19500000Y500000D01*
X37000000Y1250000D02*
X36250000Y500000D01*
X18750000Y7000000D02*
X17300000Y8450000D01*
X37000000Y3250000D02*
X37000000Y1250000D01*
D33*
%TO.N,+3.3V*%
X31710000Y2250000D02*
X33750000Y4290000D01*
X25250000Y2250000D02*
X31710000Y2250000D01*
X24750000Y9000000D02*
X23500000Y7750000D01*
X23500000Y7750000D02*
X23500000Y4000000D01*
X32250000Y9000000D02*
X24750000Y9000000D01*
X23500000Y4000000D02*
X25250000Y2250000D01*
X33350000Y10100000D02*
X32250000Y9000000D01*
%TO.N,Net-(C12-Pad1)*%
X48095000Y5095000D02*
X47595000Y4595000D01*
X48095000Y7405000D02*
X48095000Y5095000D01*
X46745000Y23000000D02*
X46745000Y8755000D01*
X46745000Y8755000D02*
X48095000Y7405000D01*
%TO.N,GND*%
X35175000Y15537500D02*
X35175000Y13162500D01*
X45250000Y35500000D02*
X44887500Y35137500D01*
X8937500Y30750000D02*
X7635000Y29447500D01*
X35000000Y10025000D02*
X35000000Y7000000D01*
X4212500Y28357500D02*
X5095000Y27475000D01*
X53727464Y50022536D02*
X53727464Y41977464D01*
X35062500Y13050000D02*
X35062500Y10112500D01*
X53727464Y14727464D02*
X52500000Y13500000D01*
X49237500Y31350000D02*
X49237500Y37487500D01*
X23500000Y18975000D02*
X24550000Y17925000D01*
X25112500Y41150000D02*
X24962500Y41000000D01*
X25062500Y10725000D02*
X25237500Y10550000D01*
X35062500Y10112500D02*
X35075000Y10100000D01*
X23500000Y22500000D02*
X24500000Y21500000D01*
X21427081Y35985000D02*
X20225000Y35985000D01*
X24962500Y39520419D02*
X21427081Y35985000D01*
X6000000Y36000000D02*
X4212500Y34212500D01*
X49237500Y37487500D02*
X49375000Y37625000D01*
X44887500Y29807500D02*
X46745000Y27950000D01*
X47250000Y35500000D02*
X45250000Y35500000D01*
X11000000Y36000000D02*
X9000000Y34000000D01*
X50000000Y53750000D02*
X50250000Y53500000D01*
X50250000Y53500000D02*
X53727464Y50022536D01*
X23500000Y22500000D02*
X23500000Y18975000D01*
X35075000Y10100000D02*
X35075000Y9961675D01*
X24960000Y46290000D02*
X25112500Y46137500D01*
X7635000Y29447500D02*
X7635000Y27475000D01*
X9000000Y30812500D02*
X8937500Y30750000D01*
X49237500Y31350000D02*
X49237500Y27997500D01*
X24960000Y51000000D02*
X24960000Y46290000D01*
X35000000Y7000000D02*
X34750000Y6750000D01*
X24550000Y17925000D02*
X24550000Y15950000D01*
X24550000Y15950000D02*
X25062500Y15437500D01*
X24500000Y21500000D02*
X24575000Y21575000D01*
X49237500Y27997500D02*
X49285000Y27950000D01*
X24962500Y41000000D02*
X24962500Y39520419D01*
X4212500Y30875000D02*
X4212500Y28357500D01*
X44887500Y31350000D02*
X44887500Y29807500D01*
X4212500Y34212500D02*
X4212500Y30875000D01*
X35175000Y13162500D02*
X35062500Y13050000D01*
X35075000Y9961675D02*
X35000000Y9886675D01*
X53727464Y41977464D02*
X53727464Y14727464D01*
X25112500Y46137500D02*
X25112500Y43675000D01*
X44887500Y35137500D02*
X44887500Y31350000D01*
X49375000Y37625000D02*
X47250000Y35500000D01*
X11000000Y36000000D02*
X6000000Y36000000D01*
X25062500Y15437500D02*
X25062500Y13750000D01*
X53727464Y41977464D02*
X49375000Y37625000D01*
X9000000Y34000000D02*
X9000000Y30812500D01*
X35075000Y10100000D02*
X35000000Y10025000D01*
X37750000Y53750000D02*
X50000000Y53750000D01*
X25112500Y43675000D02*
X25112500Y41150000D01*
X25062500Y13750000D02*
X25062500Y10725000D01*
X34750000Y6750000D02*
X33750000Y6750000D01*
X24575000Y21575000D02*
X27325000Y21575000D01*
X37750000Y53750000D02*
X38930000Y52570000D01*
X38930000Y52570000D02*
X38930000Y51630000D01*
%TO.N,VBAT*%
X26837500Y47837500D02*
X26837500Y45087500D01*
X26837500Y45087500D02*
X26837500Y43675000D01*
X30040000Y51000000D02*
X27040000Y48000000D01*
D32*
X27000000Y43837500D02*
X26837500Y43675000D01*
D33*
X26837500Y45087500D02*
X26837500Y41200000D01*
X26837500Y41200000D02*
X27037500Y41000000D01*
X27000000Y48000000D02*
X26837500Y47837500D01*
X27040000Y48000000D02*
X27000000Y48000000D01*
%TO.N,+5V*%
X29425000Y17925000D02*
X30750000Y19250000D01*
X27137500Y13750000D02*
X27137500Y10725000D01*
X27800000Y17925000D02*
X29425000Y17925000D01*
X27800000Y17925000D02*
X27800000Y14412500D01*
X36040000Y30290000D02*
X28825000Y23075000D01*
X30750000Y19250000D02*
X30750000Y22250000D01*
X27800000Y14412500D02*
X27137500Y13750000D01*
X28825000Y23075000D02*
X27412500Y23075000D01*
X36040000Y42250000D02*
X36040000Y30290000D01*
X27137500Y10725000D02*
X26962500Y10550000D01*
%TO.N,+3.3V*%
X33275000Y13112500D02*
X33337500Y13050000D01*
X33337500Y10112500D02*
X33350000Y10100000D01*
X33275000Y15537500D02*
X33275000Y13112500D01*
X33337500Y13050000D02*
X33337500Y10112500D01*
%TO.N,Net-(C9-Pad1)*%
X6655000Y6655000D02*
X6655000Y2845000D01*
X8905000Y22525000D02*
X8275000Y22525000D01*
X8275000Y8275000D02*
X6655000Y6655000D01*
X8275000Y22525000D02*
X8275000Y8275000D01*
X8275000Y22525000D02*
X7635000Y22525000D01*
%TO.N,Net-(C10-Pad1)*%
X49750000Y23000000D02*
X49285000Y23000000D01*
X47445000Y51630000D02*
X46630000Y51630000D01*
X50555000Y23000000D02*
X49750000Y23000000D01*
X41500000Y27250000D02*
X43500000Y25250000D01*
X41500000Y46500000D02*
X41500000Y27250000D01*
X43500000Y25250000D02*
X49750000Y25250000D01*
X46630000Y51630000D02*
X41500000Y46500000D01*
X49750000Y25250000D02*
X49750000Y23000000D01*
%TO.N,Net-(C11-Pad1)*%
X6365000Y22525000D02*
X5095000Y22525000D01*
X1750000Y37750000D02*
X7155000Y43155000D01*
X3975000Y22525000D02*
X1750000Y24750000D01*
X5095000Y22525000D02*
X3975000Y22525000D01*
X1750000Y24750000D02*
X1750000Y37750000D01*
X7155000Y43155000D02*
X7155000Y52155000D01*
%TO.N,Net-(C12-Pad1)*%
X46745000Y23000000D02*
X48015000Y23000000D01*
%TO.N,Net-(D1-Pad1)*%
X30960000Y42250000D02*
X30960000Y40290000D01*
X31925000Y39325000D02*
X31925000Y33750000D01*
X31925000Y29175000D02*
X31925000Y33750000D01*
X27325000Y24575000D02*
X31925000Y29175000D01*
X30960000Y40290000D02*
X31925000Y39325000D01*
D32*
%TO.N,Net-(R3-Pad2)*%
X18500000Y21040000D02*
X18500000Y28250000D01*
X16070000Y18610000D02*
X18500000Y21040000D01*
%TO.N,Net-(R4-Pad2)*%
X16070000Y21150000D02*
X17170000Y22250000D01*
X17250000Y22250000D02*
X17500000Y22500000D01*
X17170000Y22250000D02*
X17250000Y22250000D01*
X17500000Y30000000D02*
X18405000Y30905000D01*
X18405000Y30905000D02*
X20225000Y30905000D01*
X17500000Y22500000D02*
X17500000Y30000000D01*
%TO.N,Net-(R5-Pad2)*%
X12750000Y9500000D02*
X12750000Y27324500D01*
X6037500Y30875000D02*
X6037500Y29537500D01*
X16070000Y5910000D02*
X12750000Y9230000D01*
X12500000Y28500000D02*
X11950500Y29049500D01*
X6500000Y27610000D02*
X6365000Y27475000D01*
X6037500Y29537500D02*
X6000000Y29500000D01*
X6000000Y29500000D02*
X6500000Y29000000D01*
X12750000Y9230000D02*
X12750000Y9500000D01*
X9925000Y29049500D02*
X9875500Y29000000D01*
X11950500Y29049500D02*
X9925000Y29049500D01*
X6500000Y29000000D02*
X6500000Y27610000D01*
X12750000Y28250000D02*
X12500000Y28500000D01*
X12750000Y27324500D02*
X12750000Y28250000D01*
D34*
%TO.N,Net-(R6-Pad2)*%
X10500000Y30750000D02*
X8905000Y29155000D01*
X10762500Y30750000D02*
X10500000Y30750000D01*
X8905000Y29155000D02*
X8905000Y27475000D01*
D32*
X11250000Y8190000D02*
X16070000Y3370000D01*
X11250000Y25130000D02*
X11250000Y8190000D01*
X8905000Y27475000D02*
X11250000Y25130000D01*
%TO.N,Net-(R7-Pad2)*%
X48000000Y29000000D02*
X48000000Y30000000D01*
X48000000Y30062500D02*
X46712500Y31350000D01*
X48015000Y27950000D02*
X48015000Y28985000D01*
X48015000Y28985000D02*
X48000000Y29000000D01*
X48000000Y30000000D02*
X48000000Y30062500D01*
%TO.N,Net-(R8-Pad2)*%
X51062500Y31350000D02*
X51062500Y29812500D01*
X51062500Y29812500D02*
X51000000Y29750000D01*
D34*
%TO.N,Net-(U4-Pad4)*%
X37250000Y32170000D02*
X38930000Y33850000D01*
X34500000Y25250000D02*
X37250000Y28000000D01*
X37250000Y28000000D02*
X37250000Y32170000D01*
%TD*%
M02*
