%TF.GenerationSoftware,KiCad,Pcbnew,(6.0.7)*%
%TF.CreationDate,2022-10-25T16:16:00+09:00*%
%TF.ProjectId,quad_jsb,71756164-5f6a-4736-922e-6b696361645f,rev?*%
%TF.SameCoordinates,Original*%
%TF.FileFunction,Legend,Bot*%
%TF.FilePolarity,Positive*%
%FSLAX46Y46*%
G04 Gerber Fmt 4.6, Leading zero omitted, Abs format (unit mm)*
G04 Created by KiCad (PCBNEW (6.0.7)) date 2022-10-25 16:16:00*
%MOMM*%
%LPD*%
G01*
G04 APERTURE LIST*
%ADD10C,0.150000*%
%ADD11C,0.120000*%
%ADD12C,0.381000*%
%ADD13C,0.200000*%
G04 APERTURE END LIST*
D10*
%TO.C,C5*%
X37166666Y11892857D02*
X37214285Y11845238D01*
X37357142Y11797619D01*
X37452380Y11797619D01*
X37595238Y11845238D01*
X37690476Y11940476D01*
X37738095Y12035714D01*
X37785714Y12226190D01*
X37785714Y12369047D01*
X37738095Y12559523D01*
X37690476Y12654761D01*
X37595238Y12750000D01*
X37452380Y12797619D01*
X37357142Y12797619D01*
X37214285Y12750000D01*
X37166666Y12702380D01*
X36261904Y12797619D02*
X36738095Y12797619D01*
X36785714Y12321428D01*
X36738095Y12369047D01*
X36642857Y12416666D01*
X36404761Y12416666D01*
X36309523Y12369047D01*
X36261904Y12321428D01*
X36214285Y12226190D01*
X36214285Y11988095D01*
X36261904Y11892857D01*
X36309523Y11845238D01*
X36404761Y11797619D01*
X36642857Y11797619D01*
X36738095Y11845238D01*
X36785714Y11892857D01*
%TO.C,R5*%
X5291666Y28992619D02*
X5625000Y29468809D01*
X5863095Y28992619D02*
X5863095Y29992619D01*
X5482142Y29992619D01*
X5386904Y29945000D01*
X5339285Y29897380D01*
X5291666Y29802142D01*
X5291666Y29659285D01*
X5339285Y29564047D01*
X5386904Y29516428D01*
X5482142Y29468809D01*
X5863095Y29468809D01*
X4386904Y29992619D02*
X4863095Y29992619D01*
X4910714Y29516428D01*
X4863095Y29564047D01*
X4767857Y29611666D01*
X4529761Y29611666D01*
X4434523Y29564047D01*
X4386904Y29516428D01*
X4339285Y29421190D01*
X4339285Y29183095D01*
X4386904Y29087857D01*
X4434523Y29040238D01*
X4529761Y28992619D01*
X4767857Y28992619D01*
X4863095Y29040238D01*
X4910714Y29087857D01*
%TO.C,C4*%
X29416666Y39642857D02*
X29464285Y39595238D01*
X29607142Y39547619D01*
X29702380Y39547619D01*
X29845238Y39595238D01*
X29940476Y39690476D01*
X29988095Y39785714D01*
X30035714Y39976190D01*
X30035714Y40119047D01*
X29988095Y40309523D01*
X29940476Y40404761D01*
X29845238Y40500000D01*
X29702380Y40547619D01*
X29607142Y40547619D01*
X29464285Y40500000D01*
X29416666Y40452380D01*
X28559523Y40214285D02*
X28559523Y39547619D01*
X28797619Y40595238D02*
X29035714Y39880952D01*
X28416666Y39880952D01*
%TO.C,U3*%
X36077380Y17236904D02*
X36886904Y17236904D01*
X36982142Y17189285D01*
X37029761Y17141666D01*
X37077380Y17046428D01*
X37077380Y16855952D01*
X37029761Y16760714D01*
X36982142Y16713095D01*
X36886904Y16665476D01*
X36077380Y16665476D01*
X36077380Y16284523D02*
X36077380Y15665476D01*
X36458333Y15998809D01*
X36458333Y15855952D01*
X36505952Y15760714D01*
X36553571Y15713095D01*
X36648809Y15665476D01*
X36886904Y15665476D01*
X36982142Y15713095D01*
X37029761Y15760714D01*
X37077380Y15855952D01*
X37077380Y16141666D01*
X37029761Y16236904D01*
X36982142Y16284523D01*
%TO.C,L1*%
X30166666Y29297619D02*
X30642857Y29297619D01*
X30642857Y30297619D01*
X29309523Y29297619D02*
X29880952Y29297619D01*
X29595238Y29297619D02*
X29595238Y30297619D01*
X29690476Y30154761D01*
X29785714Y30059523D01*
X29880952Y30011904D01*
%TO.C,U5*%
X28261904Y3417619D02*
X28261904Y2608095D01*
X28214285Y2512857D01*
X28166666Y2465238D01*
X28071428Y2417619D01*
X27880952Y2417619D01*
X27785714Y2465238D01*
X27738095Y2512857D01*
X27690476Y2608095D01*
X27690476Y3417619D01*
X26738095Y3417619D02*
X27214285Y3417619D01*
X27261904Y2941428D01*
X27214285Y2989047D01*
X27119047Y3036666D01*
X26880952Y3036666D01*
X26785714Y2989047D01*
X26738095Y2941428D01*
X26690476Y2846190D01*
X26690476Y2608095D01*
X26738095Y2512857D01*
X26785714Y2465238D01*
X26880952Y2417619D01*
X27119047Y2417619D01*
X27214285Y2465238D01*
X27261904Y2512857D01*
%TO.C,C8*%
X34379166Y11172857D02*
X34426785Y11125238D01*
X34569642Y11077619D01*
X34664880Y11077619D01*
X34807738Y11125238D01*
X34902976Y11220476D01*
X34950595Y11315714D01*
X34998214Y11506190D01*
X34998214Y11649047D01*
X34950595Y11839523D01*
X34902976Y11934761D01*
X34807738Y12030000D01*
X34664880Y12077619D01*
X34569642Y12077619D01*
X34426785Y12030000D01*
X34379166Y11982380D01*
X33807738Y11649047D02*
X33902976Y11696666D01*
X33950595Y11744285D01*
X33998214Y11839523D01*
X33998214Y11887142D01*
X33950595Y11982380D01*
X33902976Y12030000D01*
X33807738Y12077619D01*
X33617261Y12077619D01*
X33522023Y12030000D01*
X33474404Y11982380D01*
X33426785Y11887142D01*
X33426785Y11839523D01*
X33474404Y11744285D01*
X33522023Y11696666D01*
X33617261Y11649047D01*
X33807738Y11649047D01*
X33902976Y11601428D01*
X33950595Y11553809D01*
X33998214Y11458571D01*
X33998214Y11268095D01*
X33950595Y11172857D01*
X33902976Y11125238D01*
X33807738Y11077619D01*
X33617261Y11077619D01*
X33522023Y11125238D01*
X33474404Y11172857D01*
X33426785Y11268095D01*
X33426785Y11458571D01*
X33474404Y11553809D01*
X33522023Y11601428D01*
X33617261Y11649047D01*
%TO.C,U8*%
X44702380Y26236904D02*
X45511904Y26236904D01*
X45607142Y26189285D01*
X45654761Y26141666D01*
X45702380Y26046428D01*
X45702380Y25855952D01*
X45654761Y25760714D01*
X45607142Y25713095D01*
X45511904Y25665476D01*
X44702380Y25665476D01*
X45130952Y25046428D02*
X45083333Y25141666D01*
X45035714Y25189285D01*
X44940476Y25236904D01*
X44892857Y25236904D01*
X44797619Y25189285D01*
X44750000Y25141666D01*
X44702380Y25046428D01*
X44702380Y24855952D01*
X44750000Y24760714D01*
X44797619Y24713095D01*
X44892857Y24665476D01*
X44940476Y24665476D01*
X45035714Y24713095D01*
X45083333Y24760714D01*
X45130952Y24855952D01*
X45130952Y25046428D01*
X45178571Y25141666D01*
X45226190Y25189285D01*
X45321428Y25236904D01*
X45511904Y25236904D01*
X45607142Y25189285D01*
X45654761Y25141666D01*
X45702380Y25046428D01*
X45702380Y24855952D01*
X45654761Y24760714D01*
X45607142Y24713095D01*
X45511904Y24665476D01*
X45321428Y24665476D01*
X45226190Y24713095D01*
X45178571Y24760714D01*
X45130952Y24855952D01*
%TO.C,U7*%
X3052380Y25761904D02*
X3861904Y25761904D01*
X3957142Y25714285D01*
X4004761Y25666666D01*
X4052380Y25571428D01*
X4052380Y25380952D01*
X4004761Y25285714D01*
X3957142Y25238095D01*
X3861904Y25190476D01*
X3052380Y25190476D01*
X3052380Y24809523D02*
X3052380Y24142857D01*
X4052380Y24571428D01*
%TO.C,U2*%
X31211904Y17197619D02*
X31211904Y16388095D01*
X31164285Y16292857D01*
X31116666Y16245238D01*
X31021428Y16197619D01*
X30830952Y16197619D01*
X30735714Y16245238D01*
X30688095Y16292857D01*
X30640476Y16388095D01*
X30640476Y17197619D01*
X30211904Y17102380D02*
X30164285Y17150000D01*
X30069047Y17197619D01*
X29830952Y17197619D01*
X29735714Y17150000D01*
X29688095Y17102380D01*
X29640476Y17007142D01*
X29640476Y16911904D01*
X29688095Y16769047D01*
X30259523Y16197619D01*
X29640476Y16197619D01*
%TO.C,C3*%
X26266666Y8762857D02*
X26314285Y8715238D01*
X26457142Y8667619D01*
X26552380Y8667619D01*
X26695238Y8715238D01*
X26790476Y8810476D01*
X26838095Y8905714D01*
X26885714Y9096190D01*
X26885714Y9239047D01*
X26838095Y9429523D01*
X26790476Y9524761D01*
X26695238Y9620000D01*
X26552380Y9667619D01*
X26457142Y9667619D01*
X26314285Y9620000D01*
X26266666Y9572380D01*
X25933333Y9667619D02*
X25314285Y9667619D01*
X25647619Y9286666D01*
X25504761Y9286666D01*
X25409523Y9239047D01*
X25361904Y9191428D01*
X25314285Y9096190D01*
X25314285Y8858095D01*
X25361904Y8762857D01*
X25409523Y8715238D01*
X25504761Y8667619D01*
X25790476Y8667619D01*
X25885714Y8715238D01*
X25933333Y8762857D01*
%TO.C,C6*%
X26341666Y19917857D02*
X26389285Y19870238D01*
X26532142Y19822619D01*
X26627380Y19822619D01*
X26770238Y19870238D01*
X26865476Y19965476D01*
X26913095Y20060714D01*
X26960714Y20251190D01*
X26960714Y20394047D01*
X26913095Y20584523D01*
X26865476Y20679761D01*
X26770238Y20775000D01*
X26627380Y20822619D01*
X26532142Y20822619D01*
X26389285Y20775000D01*
X26341666Y20727380D01*
X25484523Y20822619D02*
X25675000Y20822619D01*
X25770238Y20775000D01*
X25817857Y20727380D01*
X25913095Y20584523D01*
X25960714Y20394047D01*
X25960714Y20013095D01*
X25913095Y19917857D01*
X25865476Y19870238D01*
X25770238Y19822619D01*
X25579761Y19822619D01*
X25484523Y19870238D01*
X25436904Y19917857D01*
X25389285Y20013095D01*
X25389285Y20251190D01*
X25436904Y20346428D01*
X25484523Y20394047D01*
X25579761Y20441666D01*
X25770238Y20441666D01*
X25865476Y20394047D01*
X25913095Y20346428D01*
X25960714Y20251190D01*
%TO.C,C2*%
X28916666Y43392857D02*
X28964285Y43345238D01*
X29107142Y43297619D01*
X29202380Y43297619D01*
X29345238Y43345238D01*
X29440476Y43440476D01*
X29488095Y43535714D01*
X29535714Y43726190D01*
X29535714Y43869047D01*
X29488095Y44059523D01*
X29440476Y44154761D01*
X29345238Y44250000D01*
X29202380Y44297619D01*
X29107142Y44297619D01*
X28964285Y44250000D01*
X28916666Y44202380D01*
X28535714Y44202380D02*
X28488095Y44250000D01*
X28392857Y44297619D01*
X28154761Y44297619D01*
X28059523Y44250000D01*
X28011904Y44202380D01*
X27964285Y44107142D01*
X27964285Y44011904D01*
X28011904Y43869047D01*
X28583333Y43297619D01*
X27964285Y43297619D01*
%TO.C,R7*%
X45966666Y29467619D02*
X46300000Y29943809D01*
X46538095Y29467619D02*
X46538095Y30467619D01*
X46157142Y30467619D01*
X46061904Y30420000D01*
X46014285Y30372380D01*
X45966666Y30277142D01*
X45966666Y30134285D01*
X46014285Y30039047D01*
X46061904Y29991428D01*
X46157142Y29943809D01*
X46538095Y29943809D01*
X45633333Y30467619D02*
X44966666Y30467619D01*
X45395238Y29467619D01*
%TO.C,R8*%
X50316666Y29467619D02*
X50650000Y29943809D01*
X50888095Y29467619D02*
X50888095Y30467619D01*
X50507142Y30467619D01*
X50411904Y30420000D01*
X50364285Y30372380D01*
X50316666Y30277142D01*
X50316666Y30134285D01*
X50364285Y30039047D01*
X50411904Y29991428D01*
X50507142Y29943809D01*
X50888095Y29943809D01*
X49745238Y30039047D02*
X49840476Y30086666D01*
X49888095Y30134285D01*
X49935714Y30229523D01*
X49935714Y30277142D01*
X49888095Y30372380D01*
X49840476Y30420000D01*
X49745238Y30467619D01*
X49554761Y30467619D01*
X49459523Y30420000D01*
X49411904Y30372380D01*
X49364285Y30277142D01*
X49364285Y30229523D01*
X49411904Y30134285D01*
X49459523Y30086666D01*
X49554761Y30039047D01*
X49745238Y30039047D01*
X49840476Y29991428D01*
X49888095Y29943809D01*
X49935714Y29848571D01*
X49935714Y29658095D01*
X49888095Y29562857D01*
X49840476Y29515238D01*
X49745238Y29467619D01*
X49554761Y29467619D01*
X49459523Y29515238D01*
X49411904Y29562857D01*
X49364285Y29658095D01*
X49364285Y29848571D01*
X49411904Y29943809D01*
X49459523Y29991428D01*
X49554761Y30039047D01*
%TO.C,C7*%
X26266666Y11712857D02*
X26314285Y11665238D01*
X26457142Y11617619D01*
X26552380Y11617619D01*
X26695238Y11665238D01*
X26790476Y11760476D01*
X26838095Y11855714D01*
X26885714Y12046190D01*
X26885714Y12189047D01*
X26838095Y12379523D01*
X26790476Y12474761D01*
X26695238Y12570000D01*
X26552380Y12617619D01*
X26457142Y12617619D01*
X26314285Y12570000D01*
X26266666Y12522380D01*
X25933333Y12617619D02*
X25266666Y12617619D01*
X25695238Y11617619D01*
%TO.C,R6*%
X10016666Y28867619D02*
X10350000Y29343809D01*
X10588095Y28867619D02*
X10588095Y29867619D01*
X10207142Y29867619D01*
X10111904Y29820000D01*
X10064285Y29772380D01*
X10016666Y29677142D01*
X10016666Y29534285D01*
X10064285Y29439047D01*
X10111904Y29391428D01*
X10207142Y29343809D01*
X10588095Y29343809D01*
X9159523Y29867619D02*
X9350000Y29867619D01*
X9445238Y29820000D01*
X9492857Y29772380D01*
X9588095Y29629523D01*
X9635714Y29439047D01*
X9635714Y29058095D01*
X9588095Y28962857D01*
X9540476Y28915238D01*
X9445238Y28867619D01*
X9254761Y28867619D01*
X9159523Y28915238D01*
X9111904Y28962857D01*
X9064285Y29058095D01*
X9064285Y29296190D01*
X9111904Y29391428D01*
X9159523Y29439047D01*
X9254761Y29486666D01*
X9445238Y29486666D01*
X9540476Y29439047D01*
X9588095Y29391428D01*
X9635714Y29296190D01*
D11*
%TO.C,C5*%
X34346267Y12540000D02*
X34053733Y12540000D01*
X34346267Y13560000D02*
X34053733Y13560000D01*
%TO.C,R5*%
X4870276Y30352500D02*
X5379724Y30352500D01*
X4870276Y31397500D02*
X5379724Y31397500D01*
%TO.C,C4*%
X26261252Y41735000D02*
X25738748Y41735000D01*
X26261252Y40265000D02*
X25738748Y40265000D01*
%TO.C,U3*%
X35785000Y16475000D02*
X35785000Y17125000D01*
X35785000Y16475000D02*
X35785000Y14800000D01*
X32665000Y16475000D02*
X32665000Y15825000D01*
X32665000Y16475000D02*
X32665000Y17125000D01*
%TO.C,L1*%
X30600000Y30950000D02*
X29400000Y30950000D01*
X29400000Y36550000D02*
X30600000Y36550000D01*
D12*
%TO.C,U5*%
X14800000Y54170000D02*
X40200000Y54170000D01*
D13*
X27500000Y50360000D02*
X31310000Y54170000D01*
D12*
X14800000Y54170000D02*
X14800000Y830000D01*
D13*
X23690000Y54170000D02*
X27500000Y50360000D01*
D12*
X40200000Y54170000D02*
X40200000Y830000D01*
X14800000Y830000D02*
X40200000Y830000D01*
D11*
%TO.C,C8*%
X34358767Y9590000D02*
X34066233Y9590000D01*
X34358767Y10610000D02*
X34066233Y10610000D01*
%TO.C,U8*%
X46090000Y25475000D02*
X46090000Y23525000D01*
X46090000Y25475000D02*
X46090000Y28925000D01*
X51210000Y25475000D02*
X51210000Y27425000D01*
X51210000Y25475000D02*
X51210000Y23525000D01*
%TO.C,U7*%
X9560000Y25000000D02*
X9560000Y26950000D01*
X4440000Y25000000D02*
X4440000Y23050000D01*
X9560000Y25000000D02*
X9560000Y23050000D01*
X4440000Y25000000D02*
X4440000Y28450000D01*
%TO.C,U2*%
X31135000Y20715000D02*
X31135000Y22025000D01*
X28415000Y20715000D02*
X28415000Y20945000D01*
X28415000Y25435000D02*
X28415000Y25205000D01*
X28415000Y20715000D02*
X31135000Y20715000D01*
X31135000Y25435000D02*
X28415000Y25435000D01*
X31135000Y24125000D02*
X31135000Y25435000D01*
X27275000Y20945000D02*
X28415000Y20945000D01*
%TO.C,C3*%
X25953733Y11060000D02*
X26246267Y11060000D01*
X25953733Y10040000D02*
X26246267Y10040000D01*
%TO.C,C6*%
X28810000Y19435000D02*
X28810000Y16415000D01*
X28810000Y16415000D02*
X24425000Y16415000D01*
X24425000Y19435000D02*
X28810000Y19435000D01*
%TO.C,C2*%
X25828733Y44185000D02*
X26121267Y44185000D01*
X25828733Y43165000D02*
X26121267Y43165000D01*
%TO.C,R7*%
X45545276Y31872500D02*
X46054724Y31872500D01*
X45545276Y30827500D02*
X46054724Y30827500D01*
%TO.C,R8*%
X49895276Y30827500D02*
X50404724Y30827500D01*
X49895276Y31872500D02*
X50404724Y31872500D01*
%TO.C,C7*%
X25838748Y14485000D02*
X26361252Y14485000D01*
X25838748Y13015000D02*
X26361252Y13015000D01*
%TO.C,R6*%
X9595276Y31272500D02*
X10104724Y31272500D01*
X9595276Y30227500D02*
X10104724Y30227500D01*
%TD*%
M02*
