%TF.GenerationSoftware,KiCad,Pcbnew,(6.0.7)*%
%TF.CreationDate,2022-10-25T16:16:00+09:00*%
%TF.ProjectId,quad_jsb,71756164-5f6a-4736-922e-6b696361645f,rev?*%
%TF.SameCoordinates,Original*%
%TF.FileFunction,Soldermask,Bot*%
%TF.FilePolarity,Negative*%
%FSLAX46Y46*%
G04 Gerber Fmt 4.6, Leading zero omitted, Abs format (unit mm)*
G04 Created by KiCad (PCBNEW (6.0.7)) date 2022-10-25 16:16:00*
%MOMM*%
%LPD*%
G01*
G04 APERTURE LIST*
G04 Aperture macros list*
%AMRoundRect*
0 Rectangle with rounded corners*
0 $1 Rounding radius*
0 $2 $3 $4 $5 $6 $7 $8 $9 X,Y pos of 4 corners*
0 Add a 4 corners polygon primitive as box body*
4,1,4,$2,$3,$4,$5,$6,$7,$8,$9,$2,$3,0*
0 Add four circle primitives for the rounded corners*
1,1,$1+$1,$2,$3*
1,1,$1+$1,$4,$5*
1,1,$1+$1,$6,$7*
1,1,$1+$1,$8,$9*
0 Add four rect primitives between the rounded corners*
20,1,$1+$1,$2,$3,$4,$5,0*
20,1,$1+$1,$4,$5,$6,$7,0*
20,1,$1+$1,$6,$7,$8,$9,0*
20,1,$1+$1,$8,$9,$2,$3,0*%
%AMFreePoly0*
4,1,9,5.362500,-0.866500,1.237500,-0.866500,1.237500,-0.450000,-1.237500,-0.450000,-1.237500,0.450000,1.237500,0.450000,1.237500,0.866500,5.362500,0.866500,5.362500,-0.866500,5.362500,-0.866500,$1*%
G04 Aperture macros list end*
%ADD10C,2.000000*%
%ADD11R,2.000000X2.000000*%
%ADD12C,2.200000*%
%ADD13R,2.200000X2.200000*%
%ADD14R,1.524000X1.524000*%
%ADD15C,1.524000*%
%ADD16O,2.000000X2.000000*%
%ADD17R,1.700000X1.700000*%
%ADD18O,1.700000X1.700000*%
%ADD19RoundRect,0.237500X0.300000X0.237500X-0.300000X0.237500X-0.300000X-0.237500X0.300000X-0.237500X0*%
%ADD20RoundRect,0.237500X-0.250000X-0.237500X0.250000X-0.237500X0.250000X0.237500X-0.250000X0.237500X0*%
%ADD21RoundRect,0.250000X0.337500X0.475000X-0.337500X0.475000X-0.337500X-0.475000X0.337500X-0.475000X0*%
%ADD22RoundRect,0.150000X0.150000X-0.587500X0.150000X0.587500X-0.150000X0.587500X-0.150000X-0.587500X0*%
%ADD23R,2.150000X5.500000*%
%ADD24RoundRect,0.150000X-0.150000X0.825000X-0.150000X-0.825000X0.150000X-0.825000X0.150000X0.825000X0*%
%ADD25R,2.300000X0.900000*%
%ADD26FreePoly0,0.000000*%
%ADD27RoundRect,0.237500X-0.300000X-0.237500X0.300000X-0.237500X0.300000X0.237500X-0.300000X0.237500X0*%
%ADD28RoundRect,0.250001X0.499999X0.924999X-0.499999X0.924999X-0.499999X-0.924999X0.499999X-0.924999X0*%
%ADD29RoundRect,0.250000X-0.337500X-0.475000X0.337500X-0.475000X0.337500X0.475000X-0.337500X0.475000X0*%
G04 APERTURE END LIST*
D10*
%TO.C,U11*%
X3345000Y48345000D03*
D11*
X7155000Y52155000D03*
%TD*%
D12*
%TO.C,U1*%
X30040000Y50500000D03*
D13*
X24960000Y50500000D03*
%TD*%
D14*
%TO.C,U4*%
X33750000Y6750000D03*
D15*
X33750000Y4290000D03*
X31290000Y6750000D03*
X31290000Y4290000D03*
X28830000Y6750000D03*
X28830000Y4290000D03*
X26370000Y6750000D03*
X26370000Y4290000D03*
%TD*%
D10*
%TO.C,U12*%
X51405000Y8405000D03*
D11*
X47595000Y4595000D03*
%TD*%
D10*
%TO.C,U9*%
X2845000Y6655000D03*
D11*
X6655000Y2845000D03*
%TD*%
%TO.C,D1*%
X30960000Y42250000D03*
D16*
X36040000Y42250000D03*
%TD*%
D17*
%TO.C,U6*%
X20225000Y38525000D03*
D18*
X20225000Y35985000D03*
X20225000Y33445000D03*
X20225000Y30905000D03*
X20225000Y28365000D03*
X20225000Y25825000D03*
X20225000Y23285000D03*
X20225000Y20745000D03*
X20225000Y18205000D03*
X20225000Y15665000D03*
%TD*%
D10*
%TO.C,U10*%
X51255000Y47820000D03*
D11*
X47445000Y51630000D03*
%TD*%
D19*
%TO.C,C5*%
X35062500Y13050000D03*
X33337500Y13050000D03*
%TD*%
D20*
%TO.C,R5*%
X4212500Y30875000D03*
X6037500Y30875000D03*
%TD*%
D21*
%TO.C,C4*%
X27037500Y41000000D03*
X24962500Y41000000D03*
%TD*%
D22*
%TO.C,U3*%
X35175000Y15537500D03*
X33275000Y15537500D03*
X34225000Y17412500D03*
%TD*%
D23*
%TO.C,L1*%
X28075000Y33750000D03*
X31925000Y33750000D03*
%TD*%
D14*
%TO.C,U5*%
X38930000Y51630000D03*
D15*
X38930000Y49090000D03*
X38930000Y46550000D03*
X38930000Y44010000D03*
X38930000Y41470000D03*
X38930000Y38930000D03*
X38930000Y36390000D03*
X38930000Y33850000D03*
X38930000Y31310000D03*
X38930000Y28770000D03*
X38930000Y26230000D03*
X38930000Y23690000D03*
X38930000Y21150000D03*
X38930000Y18610000D03*
X38930000Y16070000D03*
X38930000Y13530000D03*
X38930000Y10990000D03*
X38930000Y8450000D03*
X38930000Y5910000D03*
X38930000Y3370000D03*
X16070000Y3370000D03*
X16070000Y5910000D03*
X16070000Y8450000D03*
X16070000Y10990000D03*
X16070000Y13530000D03*
X16070000Y16070000D03*
X16070000Y18610000D03*
X16070000Y21150000D03*
X16070000Y23690000D03*
X16070000Y26230000D03*
X16070000Y28770000D03*
X16070000Y31310000D03*
X16070000Y33850000D03*
X16070000Y36390000D03*
X16070000Y38930000D03*
X16070000Y41470000D03*
X16070000Y44010000D03*
X16070000Y46550000D03*
X16070000Y49090000D03*
X16070000Y51630000D03*
%TD*%
D19*
%TO.C,C8*%
X35075000Y10100000D03*
X33350000Y10100000D03*
%TD*%
D24*
%TO.C,U8*%
X46745000Y27950000D03*
X48015000Y27950000D03*
X49285000Y27950000D03*
X50555000Y27950000D03*
X50555000Y23000000D03*
X49285000Y23000000D03*
X48015000Y23000000D03*
X46745000Y23000000D03*
%TD*%
%TO.C,U7*%
X5095000Y27475000D03*
X6365000Y27475000D03*
X7635000Y27475000D03*
X8905000Y27475000D03*
X8905000Y22525000D03*
X7635000Y22525000D03*
X6365000Y22525000D03*
X5095000Y22525000D03*
%TD*%
D25*
%TO.C,U2*%
X27325000Y21575000D03*
D26*
X27412500Y23075000D03*
D25*
X27325000Y24575000D03*
%TD*%
D27*
%TO.C,C3*%
X25237500Y10550000D03*
X26962500Y10550000D03*
%TD*%
D28*
%TO.C,C6*%
X27800000Y17925000D03*
X24550000Y17925000D03*
%TD*%
D27*
%TO.C,C2*%
X25112500Y43675000D03*
X26837500Y43675000D03*
%TD*%
D20*
%TO.C,R7*%
X44887500Y31350000D03*
X46712500Y31350000D03*
%TD*%
%TO.C,R8*%
X49237500Y31350000D03*
X51062500Y31350000D03*
%TD*%
D29*
%TO.C,C7*%
X25062500Y13750000D03*
X27137500Y13750000D03*
%TD*%
D20*
%TO.C,R6*%
X8937500Y30750000D03*
X10762500Y30750000D03*
%TD*%
M02*
