%TF.GenerationSoftware,KiCad,Pcbnew,(6.0.7)*%
%TF.CreationDate,2022-10-25T16:16:00+09:00*%
%TF.ProjectId,quad_jsb,71756164-5f6a-4736-922e-6b696361645f,rev?*%
%TF.SameCoordinates,Original*%
%TF.FileFunction,Legend,Top*%
%TF.FilePolarity,Positive*%
%FSLAX46Y46*%
G04 Gerber Fmt 4.6, Leading zero omitted, Abs format (unit mm)*
G04 Created by KiCad (PCBNEW (6.0.7)) date 2022-10-25 16:16:00*
%MOMM*%
%LPD*%
G01*
G04 APERTURE LIST*
%ADD10C,0.150000*%
%ADD11C,0.120000*%
G04 APERTURE END LIST*
D10*
%TO.C,C10*%
X43907142Y41822857D02*
X43859523Y41775238D01*
X43716666Y41727619D01*
X43621428Y41727619D01*
X43478571Y41775238D01*
X43383333Y41870476D01*
X43335714Y41965714D01*
X43288095Y42156190D01*
X43288095Y42299047D01*
X43335714Y42489523D01*
X43383333Y42584761D01*
X43478571Y42680000D01*
X43621428Y42727619D01*
X43716666Y42727619D01*
X43859523Y42680000D01*
X43907142Y42632380D01*
X44859523Y41727619D02*
X44288095Y41727619D01*
X44573809Y41727619D02*
X44573809Y42727619D01*
X44478571Y42584761D01*
X44383333Y42489523D01*
X44288095Y42441904D01*
X45478571Y42727619D02*
X45573809Y42727619D01*
X45669047Y42680000D01*
X45716666Y42632380D01*
X45764285Y42537142D01*
X45811904Y42346666D01*
X45811904Y42108571D01*
X45764285Y41918095D01*
X45716666Y41822857D01*
X45669047Y41775238D01*
X45573809Y41727619D01*
X45478571Y41727619D01*
X45383333Y41775238D01*
X45335714Y41822857D01*
X45288095Y41918095D01*
X45240476Y42108571D01*
X45240476Y42346666D01*
X45288095Y42537142D01*
X45335714Y42632380D01*
X45383333Y42680000D01*
X45478571Y42727619D01*
%TO.C,C12*%
X47357142Y15322857D02*
X47309523Y15275238D01*
X47166666Y15227619D01*
X47071428Y15227619D01*
X46928571Y15275238D01*
X46833333Y15370476D01*
X46785714Y15465714D01*
X46738095Y15656190D01*
X46738095Y15799047D01*
X46785714Y15989523D01*
X46833333Y16084761D01*
X46928571Y16180000D01*
X47071428Y16227619D01*
X47166666Y16227619D01*
X47309523Y16180000D01*
X47357142Y16132380D01*
X48309523Y15227619D02*
X47738095Y15227619D01*
X48023809Y15227619D02*
X48023809Y16227619D01*
X47928571Y16084761D01*
X47833333Y15989523D01*
X47738095Y15941904D01*
X48690476Y16132380D02*
X48738095Y16180000D01*
X48833333Y16227619D01*
X49071428Y16227619D01*
X49166666Y16180000D01*
X49214285Y16132380D01*
X49261904Y16037142D01*
X49261904Y15941904D01*
X49214285Y15799047D01*
X48642857Y15227619D01*
X49261904Y15227619D01*
%TO.C,U11*%
X5408904Y48892619D02*
X5408904Y48083095D01*
X5456523Y47987857D01*
X5504142Y47940238D01*
X5599380Y47892619D01*
X5789857Y47892619D01*
X5885095Y47940238D01*
X5932714Y47987857D01*
X5980333Y48083095D01*
X5980333Y48892619D01*
X6980333Y47892619D02*
X6408904Y47892619D01*
X6694619Y47892619D02*
X6694619Y48892619D01*
X6599380Y48749761D01*
X6504142Y48654523D01*
X6408904Y48606904D01*
X7932714Y47892619D02*
X7361285Y47892619D01*
X7647000Y47892619D02*
X7647000Y48892619D01*
X7551761Y48749761D01*
X7456523Y48654523D01*
X7361285Y48606904D01*
%TO.C,D5*%
X43636904Y44727619D02*
X43636904Y45727619D01*
X43875000Y45727619D01*
X44017857Y45680000D01*
X44113095Y45584761D01*
X44160714Y45489523D01*
X44208333Y45299047D01*
X44208333Y45156190D01*
X44160714Y44965714D01*
X44113095Y44870476D01*
X44017857Y44775238D01*
X43875000Y44727619D01*
X43636904Y44727619D01*
X45113095Y45727619D02*
X44636904Y45727619D01*
X44589285Y45251428D01*
X44636904Y45299047D01*
X44732142Y45346666D01*
X44970238Y45346666D01*
X45065476Y45299047D01*
X45113095Y45251428D01*
X45160714Y45156190D01*
X45160714Y44918095D01*
X45113095Y44822857D01*
X45065476Y44775238D01*
X44970238Y44727619D01*
X44732142Y44727619D01*
X44636904Y44775238D01*
X44589285Y44822857D01*
%TO.C,D4*%
X7261904Y7297619D02*
X7261904Y8297619D01*
X7500000Y8297619D01*
X7642857Y8250000D01*
X7738095Y8154761D01*
X7785714Y8059523D01*
X7833333Y7869047D01*
X7833333Y7726190D01*
X7785714Y7535714D01*
X7738095Y7440476D01*
X7642857Y7345238D01*
X7500000Y7297619D01*
X7261904Y7297619D01*
X8690476Y7964285D02*
X8690476Y7297619D01*
X8452380Y8345238D02*
X8214285Y7630952D01*
X8833333Y7630952D01*
%TO.C,U1*%
X21238095Y52297619D02*
X21238095Y51488095D01*
X21285714Y51392857D01*
X21333333Y51345238D01*
X21428571Y51297619D01*
X21619047Y51297619D01*
X21714285Y51345238D01*
X21761904Y51392857D01*
X21809523Y51488095D01*
X21809523Y52297619D01*
X22809523Y51297619D02*
X22238095Y51297619D01*
X22523809Y51297619D02*
X22523809Y52297619D01*
X22428571Y52154761D01*
X22333333Y52059523D01*
X22238095Y52011904D01*
%TO.C,U4*%
X31011904Y8452380D02*
X31011904Y9261904D01*
X30964285Y9357142D01*
X30916666Y9404761D01*
X30821428Y9452380D01*
X30630952Y9452380D01*
X30535714Y9404761D01*
X30488095Y9357142D01*
X30440476Y9261904D01*
X30440476Y8452380D01*
X29535714Y8785714D02*
X29535714Y9452380D01*
X29773809Y8404761D02*
X30011904Y9119047D01*
X29392857Y9119047D01*
%TO.C,U12*%
X49341095Y7857380D02*
X49341095Y8666904D01*
X49293476Y8762142D01*
X49245857Y8809761D01*
X49150619Y8857380D01*
X48960142Y8857380D01*
X48864904Y8809761D01*
X48817285Y8762142D01*
X48769666Y8666904D01*
X48769666Y7857380D01*
X47769666Y8857380D02*
X48341095Y8857380D01*
X48055380Y8857380D02*
X48055380Y7857380D01*
X48150619Y8000238D01*
X48245857Y8095476D01*
X48341095Y8143095D01*
X47388714Y7952619D02*
X47341095Y7905000D01*
X47245857Y7857380D01*
X47007761Y7857380D01*
X46912523Y7905000D01*
X46864904Y7952619D01*
X46817285Y8047857D01*
X46817285Y8143095D01*
X46864904Y8285952D01*
X47436333Y8857380D01*
X46817285Y8857380D01*
%TO.C,U13*%
X32111904Y31822619D02*
X32111904Y31013095D01*
X32159523Y30917857D01*
X32207142Y30870238D01*
X32302380Y30822619D01*
X32492857Y30822619D01*
X32588095Y30870238D01*
X32635714Y30917857D01*
X32683333Y31013095D01*
X32683333Y31822619D01*
X33683333Y30822619D02*
X33111904Y30822619D01*
X33397619Y30822619D02*
X33397619Y31822619D01*
X33302380Y31679761D01*
X33207142Y31584523D01*
X33111904Y31536904D01*
X34016666Y31822619D02*
X34635714Y31822619D01*
X34302380Y31441666D01*
X34445238Y31441666D01*
X34540476Y31394047D01*
X34588095Y31346428D01*
X34635714Y31251190D01*
X34635714Y31013095D01*
X34588095Y30917857D01*
X34540476Y30870238D01*
X34445238Y30822619D01*
X34159523Y30822619D01*
X34064285Y30870238D01*
X34016666Y30917857D01*
%TO.C,C13*%
X20107142Y43037857D02*
X20059523Y42990238D01*
X19916666Y42942619D01*
X19821428Y42942619D01*
X19678571Y42990238D01*
X19583333Y43085476D01*
X19535714Y43180714D01*
X19488095Y43371190D01*
X19488095Y43514047D01*
X19535714Y43704523D01*
X19583333Y43799761D01*
X19678571Y43895000D01*
X19821428Y43942619D01*
X19916666Y43942619D01*
X20059523Y43895000D01*
X20107142Y43847380D01*
X21059523Y42942619D02*
X20488095Y42942619D01*
X20773809Y42942619D02*
X20773809Y43942619D01*
X20678571Y43799761D01*
X20583333Y43704523D01*
X20488095Y43656904D01*
X21392857Y43942619D02*
X22011904Y43942619D01*
X21678571Y43561666D01*
X21821428Y43561666D01*
X21916666Y43514047D01*
X21964285Y43466428D01*
X22011904Y43371190D01*
X22011904Y43133095D01*
X21964285Y43037857D01*
X21916666Y42990238D01*
X21821428Y42942619D01*
X21535714Y42942619D01*
X21440476Y42990238D01*
X21392857Y43037857D01*
%TO.C,U9*%
X3392619Y4114904D02*
X2583095Y4114904D01*
X2487857Y4067285D01*
X2440238Y4019666D01*
X2392619Y3924428D01*
X2392619Y3733952D01*
X2440238Y3638714D01*
X2487857Y3591095D01*
X2583095Y3543476D01*
X3392619Y3543476D01*
X2392619Y3019666D02*
X2392619Y2829190D01*
X2440238Y2733952D01*
X2487857Y2686333D01*
X2630714Y2591095D01*
X2821190Y2543476D01*
X3202142Y2543476D01*
X3297380Y2591095D01*
X3345000Y2638714D01*
X3392619Y2733952D01*
X3392619Y2924428D01*
X3345000Y3019666D01*
X3297380Y3067285D01*
X3202142Y3114904D01*
X2964047Y3114904D01*
X2868809Y3067285D01*
X2821190Y3019666D01*
X2773571Y2924428D01*
X2773571Y2733952D01*
X2821190Y2638714D01*
X2868809Y2591095D01*
X2964047Y2543476D01*
%TO.C,C11*%
X6676016Y41223331D02*
X6628397Y41175712D01*
X6485540Y41128093D01*
X6390302Y41128093D01*
X6247445Y41175712D01*
X6152207Y41270950D01*
X6104588Y41366188D01*
X6056969Y41556664D01*
X6056969Y41699521D01*
X6104588Y41889997D01*
X6152207Y41985235D01*
X6247445Y42080474D01*
X6390302Y42128093D01*
X6485540Y42128093D01*
X6628397Y42080474D01*
X6676016Y42032854D01*
X7628397Y41128093D02*
X7056969Y41128093D01*
X7342683Y41128093D02*
X7342683Y42128093D01*
X7247445Y41985235D01*
X7152207Y41889997D01*
X7056969Y41842378D01*
X8580778Y41128093D02*
X8009350Y41128093D01*
X8295064Y41128093D02*
X8295064Y42128093D01*
X8199826Y41985235D01*
X8104588Y41889997D01*
X8009350Y41842378D01*
%TO.C,R4*%
X26270833Y28242619D02*
X25937500Y28718809D01*
X25699404Y28242619D02*
X25699404Y29242619D01*
X26080357Y29242619D01*
X26175595Y29195000D01*
X26223214Y29147380D01*
X26270833Y29052142D01*
X26270833Y28909285D01*
X26223214Y28814047D01*
X26175595Y28766428D01*
X26080357Y28718809D01*
X25699404Y28718809D01*
X27127976Y28909285D02*
X27127976Y28242619D01*
X26889880Y29290238D02*
X26651785Y28575952D01*
X27270833Y28575952D01*
%TO.C,D7*%
X47549404Y11727619D02*
X47549404Y12727619D01*
X47787500Y12727619D01*
X47930357Y12680000D01*
X48025595Y12584761D01*
X48073214Y12489523D01*
X48120833Y12299047D01*
X48120833Y12156190D01*
X48073214Y11965714D01*
X48025595Y11870476D01*
X47930357Y11775238D01*
X47787500Y11727619D01*
X47549404Y11727619D01*
X48454166Y12727619D02*
X49120833Y12727619D01*
X48692261Y11727619D01*
%TO.C,D3*%
X9361904Y23967619D02*
X9361904Y24967619D01*
X9600000Y24967619D01*
X9742857Y24920000D01*
X9838095Y24824761D01*
X9885714Y24729523D01*
X9933333Y24539047D01*
X9933333Y24396190D01*
X9885714Y24205714D01*
X9838095Y24110476D01*
X9742857Y24015238D01*
X9600000Y23967619D01*
X9361904Y23967619D01*
X10266666Y24967619D02*
X10885714Y24967619D01*
X10552380Y24586666D01*
X10695238Y24586666D01*
X10790476Y24539047D01*
X10838095Y24491428D01*
X10885714Y24396190D01*
X10885714Y24158095D01*
X10838095Y24062857D01*
X10790476Y24015238D01*
X10695238Y23967619D01*
X10409523Y23967619D01*
X10314285Y24015238D01*
X10266666Y24062857D01*
%TO.C,D2*%
X9086904Y20242619D02*
X9086904Y21242619D01*
X9325000Y21242619D01*
X9467857Y21195000D01*
X9563095Y21099761D01*
X9610714Y21004523D01*
X9658333Y20814047D01*
X9658333Y20671190D01*
X9610714Y20480714D01*
X9563095Y20385476D01*
X9467857Y20290238D01*
X9325000Y20242619D01*
X9086904Y20242619D01*
X10039285Y21147380D02*
X10086904Y21195000D01*
X10182142Y21242619D01*
X10420238Y21242619D01*
X10515476Y21195000D01*
X10563095Y21147380D01*
X10610714Y21052142D01*
X10610714Y20956904D01*
X10563095Y20814047D01*
X9991666Y20242619D01*
X10610714Y20242619D01*
%TO.C,D1*%
X32761904Y44217619D02*
X32761904Y45217619D01*
X33000000Y45217619D01*
X33142857Y45170000D01*
X33238095Y45074761D01*
X33285714Y44979523D01*
X33333333Y44789047D01*
X33333333Y44646190D01*
X33285714Y44455714D01*
X33238095Y44360476D01*
X33142857Y44265238D01*
X33000000Y44217619D01*
X32761904Y44217619D01*
X34285714Y44217619D02*
X33714285Y44217619D01*
X34000000Y44217619D02*
X34000000Y45217619D01*
X33904761Y45074761D01*
X33809523Y44979523D01*
X33714285Y44931904D01*
X30698095Y43797619D02*
X30698095Y44797619D01*
X31269523Y43797619D02*
X30840952Y44369047D01*
X31269523Y44797619D02*
X30698095Y44226190D01*
%TO.C,C14*%
X33607142Y50142857D02*
X33559523Y50095238D01*
X33416666Y50047619D01*
X33321428Y50047619D01*
X33178571Y50095238D01*
X33083333Y50190476D01*
X33035714Y50285714D01*
X32988095Y50476190D01*
X32988095Y50619047D01*
X33035714Y50809523D01*
X33083333Y50904761D01*
X33178571Y51000000D01*
X33321428Y51047619D01*
X33416666Y51047619D01*
X33559523Y51000000D01*
X33607142Y50952380D01*
X34559523Y50047619D02*
X33988095Y50047619D01*
X34273809Y50047619D02*
X34273809Y51047619D01*
X34178571Y50904761D01*
X34083333Y50809523D01*
X33988095Y50761904D01*
X35416666Y50714285D02*
X35416666Y50047619D01*
X35178571Y51095238D02*
X34940476Y50380952D01*
X35559523Y50380952D01*
%TO.C,U6*%
X19463095Y41842619D02*
X19463095Y41033095D01*
X19510714Y40937857D01*
X19558333Y40890238D01*
X19653571Y40842619D01*
X19844047Y40842619D01*
X19939285Y40890238D01*
X19986904Y40937857D01*
X20034523Y41033095D01*
X20034523Y41842619D01*
X20939285Y41842619D02*
X20748809Y41842619D01*
X20653571Y41795000D01*
X20605952Y41747380D01*
X20510714Y41604523D01*
X20463095Y41414047D01*
X20463095Y41033095D01*
X20510714Y40937857D01*
X20558333Y40890238D01*
X20653571Y40842619D01*
X20844047Y40842619D01*
X20939285Y40890238D01*
X20986904Y40937857D01*
X21034523Y41033095D01*
X21034523Y41271190D01*
X20986904Y41366428D01*
X20939285Y41414047D01*
X20844047Y41461666D01*
X20653571Y41461666D01*
X20558333Y41414047D01*
X20510714Y41366428D01*
X20463095Y41271190D01*
%TO.C,R10*%
X5519642Y24117619D02*
X5186309Y24593809D01*
X4948214Y24117619D02*
X4948214Y25117619D01*
X5329166Y25117619D01*
X5424404Y25070000D01*
X5472023Y25022380D01*
X5519642Y24927142D01*
X5519642Y24784285D01*
X5472023Y24689047D01*
X5424404Y24641428D01*
X5329166Y24593809D01*
X4948214Y24593809D01*
X6472023Y24117619D02*
X5900595Y24117619D01*
X6186309Y24117619D02*
X6186309Y25117619D01*
X6091071Y24974761D01*
X5995833Y24879523D01*
X5900595Y24831904D01*
X7091071Y25117619D02*
X7186309Y25117619D01*
X7281547Y25070000D01*
X7329166Y25022380D01*
X7376785Y24927142D01*
X7424404Y24736666D01*
X7424404Y24498571D01*
X7376785Y24308095D01*
X7329166Y24212857D01*
X7281547Y24165238D01*
X7186309Y24117619D01*
X7091071Y24117619D01*
X6995833Y24165238D01*
X6948214Y24212857D01*
X6900595Y24308095D01*
X6852976Y24498571D01*
X6852976Y24736666D01*
X6900595Y24927142D01*
X6948214Y25022380D01*
X6995833Y25070000D01*
X7091071Y25117619D01*
%TO.C,R2*%
X42922380Y32170833D02*
X42446190Y31837500D01*
X42922380Y31599404D02*
X41922380Y31599404D01*
X41922380Y31980357D01*
X41970000Y32075595D01*
X42017619Y32123214D01*
X42112857Y32170833D01*
X42255714Y32170833D01*
X42350952Y32123214D01*
X42398571Y32075595D01*
X42446190Y31980357D01*
X42446190Y31599404D01*
X42017619Y32551785D02*
X41970000Y32599404D01*
X41922380Y32694642D01*
X41922380Y32932738D01*
X41970000Y33027976D01*
X42017619Y33075595D01*
X42112857Y33123214D01*
X42208095Y33123214D01*
X42350952Y33075595D01*
X42922380Y32504166D01*
X42922380Y33123214D01*
%TO.C,R3*%
X26270833Y31242619D02*
X25937500Y31718809D01*
X25699404Y31242619D02*
X25699404Y32242619D01*
X26080357Y32242619D01*
X26175595Y32195000D01*
X26223214Y32147380D01*
X26270833Y32052142D01*
X26270833Y31909285D01*
X26223214Y31814047D01*
X26175595Y31766428D01*
X26080357Y31718809D01*
X25699404Y31718809D01*
X26604166Y32242619D02*
X27223214Y32242619D01*
X26889880Y31861666D01*
X27032738Y31861666D01*
X27127976Y31814047D01*
X27175595Y31766428D01*
X27223214Y31671190D01*
X27223214Y31433095D01*
X27175595Y31337857D01*
X27127976Y31290238D01*
X27032738Y31242619D01*
X26747023Y31242619D01*
X26651785Y31290238D01*
X26604166Y31337857D01*
%TO.C,D6*%
X6886904Y44117619D02*
X6886904Y45117619D01*
X7125000Y45117619D01*
X7267857Y45070000D01*
X7363095Y44974761D01*
X7410714Y44879523D01*
X7458333Y44689047D01*
X7458333Y44546190D01*
X7410714Y44355714D01*
X7363095Y44260476D01*
X7267857Y44165238D01*
X7125000Y44117619D01*
X6886904Y44117619D01*
X8315476Y45117619D02*
X8125000Y45117619D01*
X8029761Y45070000D01*
X7982142Y45022380D01*
X7886904Y44879523D01*
X7839285Y44689047D01*
X7839285Y44308095D01*
X7886904Y44212857D01*
X7934523Y44165238D01*
X8029761Y44117619D01*
X8220238Y44117619D01*
X8315476Y44165238D01*
X8363095Y44212857D01*
X8410714Y44308095D01*
X8410714Y44546190D01*
X8363095Y44641428D01*
X8315476Y44689047D01*
X8220238Y44736666D01*
X8029761Y44736666D01*
X7934523Y44689047D01*
X7886904Y44641428D01*
X7839285Y44546190D01*
%TO.C,C15*%
X25119642Y24522857D02*
X25072023Y24475238D01*
X24929166Y24427619D01*
X24833928Y24427619D01*
X24691071Y24475238D01*
X24595833Y24570476D01*
X24548214Y24665714D01*
X24500595Y24856190D01*
X24500595Y24999047D01*
X24548214Y25189523D01*
X24595833Y25284761D01*
X24691071Y25380000D01*
X24833928Y25427619D01*
X24929166Y25427619D01*
X25072023Y25380000D01*
X25119642Y25332380D01*
X26072023Y24427619D02*
X25500595Y24427619D01*
X25786309Y24427619D02*
X25786309Y25427619D01*
X25691071Y25284761D01*
X25595833Y25189523D01*
X25500595Y25141904D01*
X26976785Y25427619D02*
X26500595Y25427619D01*
X26452976Y24951428D01*
X26500595Y24999047D01*
X26595833Y25046666D01*
X26833928Y25046666D01*
X26929166Y24999047D01*
X26976785Y24951428D01*
X27024404Y24856190D01*
X27024404Y24618095D01*
X26976785Y24522857D01*
X26929166Y24475238D01*
X26833928Y24427619D01*
X26595833Y24427619D01*
X26500595Y24475238D01*
X26452976Y24522857D01*
%TO.C,U10*%
X50707380Y49883904D02*
X51516904Y49883904D01*
X51612142Y49931523D01*
X51659761Y49979142D01*
X51707380Y50074380D01*
X51707380Y50264857D01*
X51659761Y50360095D01*
X51612142Y50407714D01*
X51516904Y50455333D01*
X50707380Y50455333D01*
X51707380Y51455333D02*
X51707380Y50883904D01*
X51707380Y51169619D02*
X50707380Y51169619D01*
X50850238Y51074380D01*
X50945476Y50979142D01*
X50993095Y50883904D01*
X50707380Y52074380D02*
X50707380Y52169619D01*
X50755000Y52264857D01*
X50802619Y52312476D01*
X50897857Y52360095D01*
X51088333Y52407714D01*
X51326428Y52407714D01*
X51516904Y52360095D01*
X51612142Y52312476D01*
X51659761Y52264857D01*
X51707380Y52169619D01*
X51707380Y52074380D01*
X51659761Y51979142D01*
X51612142Y51931523D01*
X51516904Y51883904D01*
X51326428Y51836285D01*
X51088333Y51836285D01*
X50897857Y51883904D01*
X50802619Y51931523D01*
X50755000Y51979142D01*
X50707380Y52074380D01*
%TO.C,C9*%
X7833333Y11212857D02*
X7785714Y11165238D01*
X7642857Y11117619D01*
X7547619Y11117619D01*
X7404761Y11165238D01*
X7309523Y11260476D01*
X7261904Y11355714D01*
X7214285Y11546190D01*
X7214285Y11689047D01*
X7261904Y11879523D01*
X7309523Y11974761D01*
X7404761Y12070000D01*
X7547619Y12117619D01*
X7642857Y12117619D01*
X7785714Y12070000D01*
X7833333Y12022380D01*
X8309523Y11117619D02*
X8500000Y11117619D01*
X8595238Y11165238D01*
X8642857Y11212857D01*
X8738095Y11355714D01*
X8785714Y11546190D01*
X8785714Y11927142D01*
X8738095Y12022380D01*
X8690476Y12070000D01*
X8595238Y12117619D01*
X8404761Y12117619D01*
X8309523Y12070000D01*
X8261904Y12022380D01*
X8214285Y11927142D01*
X8214285Y11689047D01*
X8261904Y11593809D01*
X8309523Y11546190D01*
X8404761Y11498571D01*
X8595238Y11498571D01*
X8690476Y11546190D01*
X8738095Y11593809D01*
X8785714Y11689047D01*
%TO.C,C1*%
X23333333Y46642857D02*
X23285714Y46595238D01*
X23142857Y46547619D01*
X23047619Y46547619D01*
X22904761Y46595238D01*
X22809523Y46690476D01*
X22761904Y46785714D01*
X22714285Y46976190D01*
X22714285Y47119047D01*
X22761904Y47309523D01*
X22809523Y47404761D01*
X22904761Y47500000D01*
X23047619Y47547619D01*
X23142857Y47547619D01*
X23285714Y47500000D01*
X23333333Y47452380D01*
X24285714Y46547619D02*
X23714285Y46547619D01*
X24000000Y46547619D02*
X24000000Y47547619D01*
X23904761Y47404761D01*
X23809523Y47309523D01*
X23714285Y47261904D01*
%TO.C,C16*%
X28357142Y21142857D02*
X28309523Y21095238D01*
X28166666Y21047619D01*
X28071428Y21047619D01*
X27928571Y21095238D01*
X27833333Y21190476D01*
X27785714Y21285714D01*
X27738095Y21476190D01*
X27738095Y21619047D01*
X27785714Y21809523D01*
X27833333Y21904761D01*
X27928571Y22000000D01*
X28071428Y22047619D01*
X28166666Y22047619D01*
X28309523Y22000000D01*
X28357142Y21952380D01*
X29309523Y21047619D02*
X28738095Y21047619D01*
X29023809Y21047619D02*
X29023809Y22047619D01*
X28928571Y21904761D01*
X28833333Y21809523D01*
X28738095Y21761904D01*
X30166666Y22047619D02*
X29976190Y22047619D01*
X29880952Y22000000D01*
X29833333Y21952380D01*
X29738095Y21809523D01*
X29690476Y21619047D01*
X29690476Y21238095D01*
X29738095Y21142857D01*
X29785714Y21095238D01*
X29880952Y21047619D01*
X30071428Y21047619D01*
X30166666Y21095238D01*
X30214285Y21142857D01*
X30261904Y21238095D01*
X30261904Y21476190D01*
X30214285Y21571428D01*
X30166666Y21619047D01*
X30071428Y21666666D01*
X29880952Y21666666D01*
X29785714Y21619047D01*
X29738095Y21571428D01*
X29690476Y21476190D01*
%TO.C,R1*%
X48507380Y32220833D02*
X48031190Y31887500D01*
X48507380Y31649404D02*
X47507380Y31649404D01*
X47507380Y32030357D01*
X47555000Y32125595D01*
X47602619Y32173214D01*
X47697857Y32220833D01*
X47840714Y32220833D01*
X47935952Y32173214D01*
X47983571Y32125595D01*
X48031190Y32030357D01*
X48031190Y31649404D01*
X48507380Y33173214D02*
X48507380Y32601785D01*
X48507380Y32887500D02*
X47507380Y32887500D01*
X47650238Y32792261D01*
X47745476Y32697023D01*
X47793095Y32601785D01*
%TO.C,R9*%
X5833333Y20367619D02*
X5500000Y20843809D01*
X5261904Y20367619D02*
X5261904Y21367619D01*
X5642857Y21367619D01*
X5738095Y21320000D01*
X5785714Y21272380D01*
X5833333Y21177142D01*
X5833333Y21034285D01*
X5785714Y20939047D01*
X5738095Y20891428D01*
X5642857Y20843809D01*
X5261904Y20843809D01*
X6309523Y20367619D02*
X6500000Y20367619D01*
X6595238Y20415238D01*
X6642857Y20462857D01*
X6738095Y20605714D01*
X6785714Y20796190D01*
X6785714Y21177142D01*
X6738095Y21272380D01*
X6690476Y21320000D01*
X6595238Y21367619D01*
X6404761Y21367619D01*
X6309523Y21320000D01*
X6261904Y21272380D01*
X6214285Y21177142D01*
X6214285Y20939047D01*
X6261904Y20843809D01*
X6309523Y20796190D01*
X6404761Y20748571D01*
X6595238Y20748571D01*
X6690476Y20796190D01*
X6738095Y20843809D01*
X6785714Y20939047D01*
D11*
%TO.C,C10*%
X44288748Y41235000D02*
X44811252Y41235000D01*
X44288748Y39765000D02*
X44811252Y39765000D01*
%TO.C,C12*%
X47738748Y13265000D02*
X48261252Y13265000D01*
X47738748Y14735000D02*
X48261252Y14735000D01*
%TO.C,U11*%
X8298000Y53298000D02*
X8298000Y51012000D01*
X4488000Y49488000D02*
X6012000Y51012000D01*
X6012000Y53298000D02*
X8298000Y53298000D01*
X8298000Y51012000D02*
X6012000Y51012000D01*
X6012000Y51012000D02*
X6012000Y53298000D01*
X2202000Y47202000D02*
X4488000Y47202000D01*
X4488000Y47202000D02*
X4488000Y49488000D01*
X4488000Y49488000D02*
X2202000Y49488000D01*
X2202000Y49488000D02*
X2202000Y47202000D01*
%TO.C,D5*%
X42715000Y43015000D02*
X45175000Y43015000D01*
X42715000Y44485000D02*
X42715000Y43015000D01*
X45175000Y44485000D02*
X42715000Y44485000D01*
%TO.C,D4*%
X7200000Y8765000D02*
X9660000Y8765000D01*
X9660000Y10235000D02*
X7200000Y10235000D01*
X9660000Y8765000D02*
X9660000Y10235000D01*
%TO.C,U1*%
X32580000Y47960000D02*
X22420000Y47960000D01*
X22420000Y50500000D02*
X24960000Y53040000D01*
X24960000Y53040000D02*
X30040000Y53040000D01*
X30040000Y53040000D02*
X32580000Y53040000D01*
X32580000Y53040000D02*
X32580000Y47960000D01*
X22420000Y47960000D02*
X22420000Y50500000D01*
%TO.C,U4*%
X35020000Y2940000D02*
X25368000Y2940000D01*
X25368000Y2940000D02*
X25368000Y8020000D01*
X25368000Y8020000D02*
X35020000Y8020000D01*
X35020000Y8020000D02*
X35020000Y2940000D01*
%TO.C,U12*%
X48738000Y3452000D02*
X46452000Y3452000D01*
X46452000Y3452000D02*
X46452000Y5738000D01*
X48738000Y5738000D02*
X48738000Y3452000D01*
X46452000Y5738000D02*
X48738000Y5738000D01*
X50262000Y7262000D02*
X48738000Y5738000D01*
X52548000Y9548000D02*
X50262000Y9548000D01*
X50262000Y9548000D02*
X50262000Y7262000D01*
X50262000Y7262000D02*
X52548000Y7262000D01*
X52548000Y7262000D02*
X52548000Y9548000D01*
%TO.C,U13*%
X33350000Y27315000D02*
X34000000Y27315000D01*
X33350000Y30435000D02*
X34000000Y30435000D01*
X33350000Y27315000D02*
X32700000Y27315000D01*
X33350000Y30435000D02*
X31675000Y30435000D01*
%TO.C,C13*%
X20896267Y44315000D02*
X20603733Y44315000D01*
X20896267Y45335000D02*
X20603733Y45335000D01*
%TO.C,U9*%
X5512000Y3988000D02*
X7798000Y3988000D01*
X7798000Y1702000D02*
X5512000Y1702000D01*
X3988000Y5512000D02*
X5512000Y3988000D01*
X7798000Y3988000D02*
X7798000Y1702000D01*
X5512000Y1702000D02*
X5512000Y3988000D01*
X1702000Y7798000D02*
X3988000Y7798000D01*
X3988000Y7798000D02*
X3988000Y5512000D01*
X3988000Y5512000D02*
X1702000Y5512000D01*
X1702000Y5512000D02*
X1702000Y7798000D01*
%TO.C,C11*%
X7761252Y42515000D02*
X7238748Y42515000D01*
X7761252Y43985000D02*
X7238748Y43985000D01*
%TO.C,R4*%
X26692224Y29602500D02*
X26182776Y29602500D01*
X26692224Y30647500D02*
X26182776Y30647500D01*
%TO.C,D7*%
X46340000Y10015000D02*
X48800000Y10015000D01*
X48800000Y11485000D02*
X46340000Y11485000D01*
X46340000Y11485000D02*
X46340000Y10015000D01*
%TO.C,D3*%
X9300000Y25115000D02*
X11760000Y25115000D01*
X11760000Y25115000D02*
X11760000Y26585000D01*
X11760000Y26585000D02*
X9300000Y26585000D01*
%TO.C,D2*%
X11485000Y21390000D02*
X11485000Y22860000D01*
X11485000Y22860000D02*
X9025000Y22860000D01*
X9025000Y21390000D02*
X11485000Y21390000D01*
%TO.C,D1*%
X31780000Y43670000D02*
X35220000Y43670000D01*
X32500000Y43670000D02*
X32500000Y40830000D01*
X31780000Y40830000D02*
X35220000Y40830000D01*
X32260000Y43670000D02*
X32260000Y40830000D01*
X31780000Y43490000D02*
X31780000Y43670000D01*
X35220000Y43670000D02*
X35220000Y43490000D01*
X31780000Y41010000D02*
X31780000Y40830000D01*
X35220000Y40830000D02*
X35220000Y41010000D01*
X32380000Y43670000D02*
X32380000Y40830000D01*
%TO.C,C14*%
X32591233Y46715000D02*
X32883767Y46715000D01*
X32591233Y47735000D02*
X32883767Y47735000D01*
%TO.C,U6*%
X20225000Y39855000D02*
X21555000Y39855000D01*
X18895000Y37255000D02*
X21555000Y37255000D01*
X18895000Y14335000D02*
X21555000Y14335000D01*
X21555000Y39855000D02*
X21555000Y38525000D01*
X18895000Y37255000D02*
X18895000Y14335000D01*
X21555000Y37255000D02*
X21555000Y14335000D01*
%TO.C,R10*%
X6417224Y25477500D02*
X5907776Y25477500D01*
X6417224Y26522500D02*
X5907776Y26522500D01*
%TO.C,R2*%
X44422500Y32082776D02*
X44422500Y32592224D01*
X43377500Y32082776D02*
X43377500Y32592224D01*
%TO.C,R3*%
X26692224Y33647500D02*
X26182776Y33647500D01*
X26692224Y32602500D02*
X26182776Y32602500D01*
%TO.C,D6*%
X9285000Y45265000D02*
X9285000Y46735000D01*
X9285000Y46735000D02*
X6825000Y46735000D01*
X6825000Y45265000D02*
X9285000Y45265000D01*
%TO.C,C15*%
X25616233Y23960000D02*
X25908767Y23960000D01*
X25616233Y22940000D02*
X25908767Y22940000D01*
%TO.C,U10*%
X48588000Y52773000D02*
X48588000Y50487000D01*
X46302000Y50487000D02*
X46302000Y52773000D01*
X50112000Y48963000D02*
X48588000Y50487000D01*
X48588000Y50487000D02*
X46302000Y50487000D01*
X46302000Y52773000D02*
X48588000Y52773000D01*
X52398000Y46677000D02*
X50112000Y46677000D01*
X50112000Y46677000D02*
X50112000Y48963000D01*
X50112000Y48963000D02*
X52398000Y48963000D01*
X52398000Y48963000D02*
X52398000Y46677000D01*
%TO.C,C9*%
X8261252Y13985000D02*
X7738748Y13985000D01*
X8261252Y12515000D02*
X7738748Y12515000D01*
%TO.C,C1*%
X20896267Y46615000D02*
X20603733Y46615000D01*
X20896267Y47635000D02*
X20603733Y47635000D01*
%TO.C,C16*%
X25591233Y21090000D02*
X25883767Y21090000D01*
X25591233Y22110000D02*
X25883767Y22110000D01*
%TO.C,R1*%
X47147500Y32642224D02*
X47147500Y32132776D01*
X46102500Y32642224D02*
X46102500Y32132776D01*
%TO.C,R9*%
X6254724Y22772500D02*
X5745276Y22772500D01*
X6254724Y21727500D02*
X5745276Y21727500D01*
%TD*%
M02*
