%TF.GenerationSoftware,KiCad,Pcbnew,(6.0.7)*%
%TF.CreationDate,2022-10-25T16:16:00+09:00*%
%TF.ProjectId,quad_jsb,71756164-5f6a-4736-922e-6b696361645f,rev?*%
%TF.SameCoordinates,Original*%
%TF.FileFunction,Paste,Top*%
%TF.FilePolarity,Positive*%
%FSLAX46Y46*%
G04 Gerber Fmt 4.6, Leading zero omitted, Abs format (unit mm)*
G04 Created by KiCad (PCBNEW (6.0.7)) date 2022-10-25 16:16:00*
%MOMM*%
%LPD*%
G01*
G04 APERTURE LIST*
G04 Aperture macros list*
%AMRoundRect*
0 Rectangle with rounded corners*
0 $1 Rounding radius*
0 $2 $3 $4 $5 $6 $7 $8 $9 X,Y pos of 4 corners*
0 Add a 4 corners polygon primitive as box body*
4,1,4,$2,$3,$4,$5,$6,$7,$8,$9,$2,$3,0*
0 Add four circle primitives for the rounded corners*
1,1,$1+$1,$2,$3*
1,1,$1+$1,$4,$5*
1,1,$1+$1,$6,$7*
1,1,$1+$1,$8,$9*
0 Add four rect primitives between the rounded corners*
20,1,$1+$1,$2,$3,$4,$5,0*
20,1,$1+$1,$4,$5,$6,$7,0*
20,1,$1+$1,$6,$7,$8,$9,0*
20,1,$1+$1,$8,$9,$2,$3,0*%
G04 Aperture macros list end*
%ADD10RoundRect,0.250000X-0.337500X-0.475000X0.337500X-0.475000X0.337500X0.475000X-0.337500X0.475000X0*%
%ADD11RoundRect,0.237500X-0.287500X-0.237500X0.287500X-0.237500X0.287500X0.237500X-0.287500X0.237500X0*%
%ADD12RoundRect,0.237500X0.287500X0.237500X-0.287500X0.237500X-0.287500X-0.237500X0.287500X-0.237500X0*%
%ADD13RoundRect,0.150000X-0.587500X-0.150000X0.587500X-0.150000X0.587500X0.150000X-0.587500X0.150000X0*%
%ADD14RoundRect,0.237500X0.300000X0.237500X-0.300000X0.237500X-0.300000X-0.237500X0.300000X-0.237500X0*%
%ADD15RoundRect,0.250000X0.337500X0.475000X-0.337500X0.475000X-0.337500X-0.475000X0.337500X-0.475000X0*%
%ADD16RoundRect,0.237500X0.250000X0.237500X-0.250000X0.237500X-0.250000X-0.237500X0.250000X-0.237500X0*%
%ADD17RoundRect,0.237500X-0.300000X-0.237500X0.300000X-0.237500X0.300000X0.237500X-0.300000X0.237500X0*%
%ADD18RoundRect,0.237500X0.237500X-0.250000X0.237500X0.250000X-0.237500X0.250000X-0.237500X-0.250000X0*%
%ADD19RoundRect,0.237500X-0.237500X0.250000X-0.237500X-0.250000X0.237500X-0.250000X0.237500X0.250000X0*%
G04 APERTURE END LIST*
D10*
%TO.C,C10*%
X43512500Y40500000D03*
X45587500Y40500000D03*
%TD*%
%TO.C,C12*%
X46962500Y14000000D03*
X49037500Y14000000D03*
%TD*%
D11*
%TO.C,D5*%
X43500000Y43750000D03*
X45250000Y43750000D03*
%TD*%
D12*
%TO.C,D4*%
X8875000Y9500000D03*
X7125000Y9500000D03*
%TD*%
D13*
%TO.C,U13*%
X32412500Y29825000D03*
X32412500Y27925000D03*
X34287500Y28875000D03*
%TD*%
D14*
%TO.C,C13*%
X21612500Y44825000D03*
X19887500Y44825000D03*
%TD*%
D15*
%TO.C,C11*%
X8537500Y43250000D03*
X6462500Y43250000D03*
%TD*%
D16*
%TO.C,R4*%
X27350000Y30125000D03*
X25525000Y30125000D03*
%TD*%
D11*
%TO.C,D7*%
X47125000Y10750000D03*
X48875000Y10750000D03*
%TD*%
D12*
%TO.C,D3*%
X10975000Y25850000D03*
X9225000Y25850000D03*
%TD*%
%TO.C,D2*%
X10700000Y22125000D03*
X8950000Y22125000D03*
%TD*%
D17*
%TO.C,C14*%
X31875000Y47225000D03*
X33600000Y47225000D03*
%TD*%
D16*
%TO.C,R10*%
X7075000Y26000000D03*
X5250000Y26000000D03*
%TD*%
D18*
%TO.C,R2*%
X43900000Y31425000D03*
X43900000Y33250000D03*
%TD*%
D16*
%TO.C,R3*%
X27350000Y33125000D03*
X25525000Y33125000D03*
%TD*%
D12*
%TO.C,D6*%
X8500000Y46000000D03*
X6750000Y46000000D03*
%TD*%
D17*
%TO.C,C15*%
X24900000Y23450000D03*
X26625000Y23450000D03*
%TD*%
D15*
%TO.C,C9*%
X9037500Y13250000D03*
X6962500Y13250000D03*
%TD*%
D14*
%TO.C,C1*%
X21612500Y47125000D03*
X19887500Y47125000D03*
%TD*%
D17*
%TO.C,C16*%
X24875000Y21600000D03*
X26600000Y21600000D03*
%TD*%
D19*
%TO.C,R1*%
X46625000Y33300000D03*
X46625000Y31475000D03*
%TD*%
D16*
%TO.C,R9*%
X6912500Y22250000D03*
X5087500Y22250000D03*
%TD*%
M02*
